<svg width="781" height="175" viewBox="0 0 781 175" fill="none" xmlns="http://www.w3.org/2000/svg">
<mask id="path-1-outside-1_174_7" maskUnits="userSpaceOnUse" x="-0.916016" y="-0.5" width="781" height="175" fill="black">
<rect fill="white" x="-0.916016" y="-0.5" width="781" height="175"/>
<path d="M11 123.5V24.623H17.8848L59.7793 68.2754L101.381 24.623H108.266V123.5H87.9043V63.7344L62.709 91.2734H56.8496L31.3613 63.7344V123.5H11ZM133.314 158.656L162.611 105.336L186.928 49.5254H208.168L154.408 158.656H133.314ZM158.07 123.207L123.646 49.5254H145.326L171.986 109.291L158.07 123.207ZM266.762 123.5V25.3555H307.338C311.928 25.3555 316.42 26.1855 320.814 27.8457C325.209 29.5059 329.164 31.9473 332.68 35.1699C336.293 38.2949 339.125 42.1523 341.176 46.7422C343.324 51.2344 344.398 56.4102 344.398 62.2695C344.398 69.3984 342.689 75.6484 339.271 81.0195C335.951 86.293 331.508 90.4434 325.941 93.4707C320.375 96.4004 314.32 97.8652 307.777 97.8652C302.504 97.8652 297.914 97.377 294.008 96.4004C290.102 95.4238 286.977 94.2031 284.633 92.7383V76.0391C286.781 77.1133 289.613 78.1387 293.129 79.1152C296.742 79.9941 300.502 80.4336 304.408 80.4336C310.268 80.4336 314.906 78.8223 318.324 75.5996C321.84 72.2793 323.598 67.8359 323.598 62.2695C323.598 58.2656 322.67 54.9941 320.814 52.4551C319.057 49.8184 316.664 47.8164 313.637 46.4492C310.707 45.082 307.484 44.3984 303.969 44.3984H287.123V123.5H266.762ZM361.684 123.5V49.5254H380.287V123.5H361.684ZM380.287 82.1914V63.4414C382.826 59.0469 385.805 55.3848 389.223 52.4551C392.738 49.5254 396.693 48.0605 401.088 48.0605C403.822 48.0605 406.215 48.5 408.266 49.3789V70.3262C406.801 69.4473 405.238 68.8125 403.578 68.4219C402.016 67.9336 400.307 67.6895 398.451 67.6895C394.252 67.6895 390.688 69.1055 387.758 71.9375C384.926 74.6719 382.436 78.0898 380.287 82.1914ZM457.045 125.697C451.674 125.697 446.596 124.721 441.811 122.768C437.123 120.717 432.924 117.934 429.213 114.418C425.502 110.902 422.621 106.801 420.57 102.113C418.52 97.3281 417.494 92.2012 417.494 86.7324C417.494 81.2637 418.52 76.1855 420.57 71.498C422.621 66.7129 425.502 62.5625 429.213 59.0469C432.924 55.4336 437.123 52.6504 441.811 50.6973C446.596 48.6465 451.674 47.6211 457.045 47.6211C462.416 47.6211 467.494 48.6465 472.279 50.6973C477.064 52.6504 481.264 55.4336 484.877 59.0469C488.588 62.5625 491.469 66.7129 493.52 71.498C495.668 76.1855 496.742 81.2637 496.742 86.7324C496.742 92.2012 495.668 97.3281 493.52 102.113C491.469 106.801 488.588 110.902 484.877 114.418C481.264 117.934 477.064 120.717 472.279 122.768C467.494 124.721 462.416 125.697 457.045 125.697ZM457.045 107.68C460.658 107.68 463.93 106.898 466.859 105.336C469.887 103.676 472.328 101.283 474.184 98.1582C476.039 94.9355 476.967 91.127 476.967 86.7324C476.967 82.1426 476.039 78.2852 474.184 75.1602C472.328 72.0352 469.887 69.6914 466.859 68.1289C463.93 66.4688 460.658 65.6387 457.045 65.6387C453.627 65.6387 450.355 66.4688 447.23 68.1289C444.203 69.6914 441.762 72.0352 439.906 75.1602C438.148 78.2852 437.27 82.1426 437.27 86.7324C437.27 91.127 438.148 94.9355 439.906 98.1582C441.762 101.283 444.203 103.676 447.23 105.336C450.355 106.898 453.627 107.68 457.045 107.68ZM528.969 11C531.312 11 533.461 11.5859 535.414 12.7578C537.367 13.832 538.93 15.3457 540.102 17.2988C541.273 19.1543 541.859 21.2539 541.859 23.5977C541.859 25.7461 541.273 27.7969 540.102 29.75C538.93 31.7031 537.367 33.2656 535.414 34.4375C533.461 35.6094 531.312 36.1953 528.969 36.1953C526.625 36.1953 524.477 35.6094 522.523 34.4375C520.57 33.2656 519.008 31.7031 517.836 29.75C516.664 27.7969 516.078 25.7461 516.078 23.5977C516.078 20.082 517.348 17.1035 519.887 14.6621C522.426 12.2207 525.453 11 528.969 11ZM513.002 160.854L504.799 144.594C509.975 142.25 513.93 139.418 516.664 136.098C519.496 132.777 520.912 128.529 520.912 123.354V65.3457H509.047V49.5254H539.516V122.621C539.516 132.68 537.221 140.785 532.631 146.938C528.041 153.188 521.498 157.826 513.002 160.854ZM598.109 125.697C592.641 125.697 587.514 124.77 582.729 122.914C577.943 120.961 573.695 118.275 569.984 114.857C566.371 111.439 563.539 107.387 561.488 102.699C559.438 98.0117 558.412 92.8848 558.412 87.3184C558.412 80.0918 560.023 73.5 563.246 67.543C566.469 61.4883 570.912 56.6543 576.576 53.041C582.24 49.4277 588.686 47.6211 595.912 47.6211C603.139 47.6211 609.34 49.1836 614.516 52.3086C619.789 55.4336 623.793 59.7793 626.527 65.3457C629.359 70.8145 630.775 77.1621 630.775 84.3887V92.2988H575.551V79.5547H612.904C612.709 75.9414 611.732 73.0117 609.975 70.7656C608.217 68.4219 606.068 66.7129 603.529 65.6387C600.99 64.4668 598.305 63.8809 595.473 63.8809C591.664 63.8809 588.344 64.8574 585.512 66.8105C582.777 68.7637 580.629 71.498 579.066 75.0137C577.504 78.5293 576.723 82.6309 576.723 87.3184C576.723 91.5176 577.65 95.2285 579.506 98.4512C581.361 101.674 583.949 104.213 587.27 106.068C590.688 107.924 594.545 108.852 598.842 108.852C604.311 108.852 609.193 107.777 613.49 105.629C617.885 103.48 621.352 101.283 623.891 99.0371V116.322C622.426 117.689 620.375 119.105 617.738 120.57C615.102 122.035 612.074 123.256 608.656 124.232C605.336 125.209 601.82 125.697 598.109 125.697ZM681.459 125.697C675.893 125.697 670.717 124.672 665.932 122.621C661.244 120.57 657.143 117.738 653.627 114.125C650.111 110.512 647.377 106.361 645.424 101.674C643.568 96.9863 642.641 92.0547 642.641 86.8789C642.641 81.7031 643.568 76.7715 645.424 72.084C647.377 67.3965 650.111 63.2461 653.627 59.6328C657.143 55.9219 661.244 52.9922 665.932 50.8438C670.717 48.6953 675.893 47.6211 681.459 47.6211C687.025 47.6211 691.518 48.5 694.936 50.2578C698.451 52.0156 701.234 53.7246 703.285 55.3848V72.5234C700.746 70.668 697.865 69.1055 694.643 67.8359C691.518 66.5664 687.66 65.9316 683.07 65.9316C679.359 65.9316 675.893 66.8594 672.67 68.7148C669.545 70.5703 667.055 73.0605 665.199 76.1855C663.344 79.3105 662.416 82.875 662.416 86.8789C662.416 90.8828 663.295 94.4473 665.053 97.5723C666.811 100.697 669.252 103.188 672.377 105.043C675.6 106.801 679.164 107.68 683.07 107.68C687.66 107.68 691.518 107.045 694.643 105.775C697.865 104.506 700.746 102.992 703.285 101.234V118.227C701.234 119.984 698.451 121.693 694.936 123.354C691.518 124.916 687.025 125.697 681.459 125.697ZM750.453 125.697C746.059 125.697 742.055 124.721 738.441 122.768C734.926 120.814 732.143 118.08 730.092 114.564C728.041 110.951 727.016 106.703 727.016 101.82V65.0527H714.711V55.5312C719.496 53.8711 723.402 50.7949 726.43 46.3027C729.555 41.8105 732.289 36.1953 734.633 29.457H745.619V49.5254H767.885V65.0527H745.619V96.9863C745.619 100.307 746.449 102.943 748.109 104.896C749.867 106.752 752.406 107.68 755.727 107.68C758.656 107.68 761.195 107.24 763.344 106.361C765.492 105.482 767.396 104.555 769.057 103.578V119.398C767.299 121.254 764.809 122.768 761.586 123.939C758.461 125.111 754.75 125.697 750.453 125.697Z"/>
</mask>
<path d="M11 123.5H0V134.5H11V123.5ZM11 24.623V13.623H0V24.623H11ZM17.8848 24.623L25.8211 17.0063L22.5741 13.623H17.8848V24.623ZM59.7793 68.2754L51.843 75.8921L59.8072 84.1905L67.7423 75.8643L59.7793 68.2754ZM101.381 24.623V13.623H96.6688L93.4179 17.0342L101.381 24.623ZM108.266 24.623H119.266V13.623H108.266V24.623ZM108.266 123.5V134.5H119.266V123.5H108.266ZM87.9043 123.5H76.9043V134.5H87.9043V123.5ZM87.9043 63.7344H98.9043V35.4151L79.7884 56.3092L87.9043 63.7344ZM62.709 91.2734V102.273H67.5542L70.8248 98.6986L62.709 91.2734ZM56.8496 91.2734L48.7767 98.7452L52.0421 102.273H56.8496V91.2734ZM31.3613 63.7344L39.4343 56.2626L20.3613 35.655V63.7344H31.3613ZM31.3613 123.5V134.5H42.3613V123.5H31.3613ZM11 123.5H22V24.623H11H0V123.5H11ZM11 24.623V35.623H17.8848V24.623V13.623H11V24.623ZM17.8848 24.623L9.94844 32.2398L51.843 75.8921L59.7793 68.2754L67.7156 60.6586L25.8211 17.0063L17.8848 24.623ZM59.7793 68.2754L67.7423 75.8643L109.344 32.2119L101.381 24.623L93.4179 17.0342L51.8163 60.6865L59.7793 68.2754ZM101.381 24.623V35.623H108.266V24.623V13.623H101.381V24.623ZM108.266 24.623H97.2656V123.5H108.266H119.266V24.623H108.266ZM108.266 123.5V112.5H87.9043V123.5V134.5H108.266V123.5ZM87.9043 123.5H98.9043V63.7344H87.9043H76.9043V123.5H87.9043ZM87.9043 63.7344L79.7884 56.3092L54.5931 83.8483L62.709 91.2734L70.8248 98.6986L96.0202 71.1595L87.9043 63.7344ZM62.709 91.2734V80.2734H56.8496V91.2734V102.273H62.709V91.2734ZM56.8496 91.2734L64.9226 83.8017L39.4343 56.2626L31.3613 63.7344L23.2884 71.2061L48.7767 98.7452L56.8496 91.2734ZM31.3613 63.7344H20.3613V123.5H31.3613H42.3613V63.7344H31.3613ZM31.3613 123.5V112.5H11V123.5V134.5H31.3613V123.5ZM133.314 158.656L123.674 153.359L114.719 169.656H133.314V158.656ZM162.611 105.336L172.252 110.633L172.495 110.191L172.696 109.73L162.611 105.336ZM186.928 49.5254V38.5254H179.722L176.843 45.1317L186.928 49.5254ZM208.168 49.5254L218.036 54.3864L225.849 38.5254H208.168V49.5254ZM154.408 158.656V169.656H161.252L164.276 163.517L154.408 158.656ZM158.07 123.207L148.104 127.863L154.749 142.085L165.848 130.985L158.07 123.207ZM123.646 49.5254V38.5254H106.366L113.68 54.1815L123.646 49.5254ZM145.326 49.5254L155.372 45.0442L152.464 38.5254H145.326V49.5254ZM171.986 109.291L179.764 117.069L185.114 111.719L182.032 104.81L171.986 109.291ZM133.314 158.656L142.955 163.953L172.252 110.633L162.611 105.336L152.971 100.039L123.674 153.359L133.314 158.656ZM162.611 105.336L172.696 109.73L197.012 53.9191L186.928 49.5254L176.843 45.1317L152.527 100.942L162.611 105.336ZM186.928 49.5254V60.5254H208.168V49.5254V38.5254H186.928V49.5254ZM208.168 49.5254L198.3 44.6644L144.541 153.795L154.408 158.656L164.276 163.517L218.036 54.3864L208.168 49.5254ZM154.408 158.656V147.656H133.314V158.656V169.656H154.408V158.656ZM158.07 123.207L168.036 118.551L133.612 44.8693L123.646 49.5254L113.68 54.1815L148.104 127.863L158.07 123.207ZM123.646 49.5254V60.5254H145.326V49.5254V38.5254H123.646V49.5254ZM145.326 49.5254L135.28 54.0066L161.941 113.772L171.986 109.291L182.032 104.81L155.372 45.0442L145.326 49.5254ZM171.986 109.291L164.208 101.513L150.292 115.429L158.07 123.207L165.848 130.985L179.764 117.069L171.986 109.291ZM266.762 123.5H255.762V134.5H266.762V123.5ZM266.762 25.3555V14.3555H255.762V25.3555H266.762ZM332.68 35.1699L325.247 43.2786L325.364 43.386L325.484 43.4899L332.68 35.1699ZM341.176 46.7422L331.133 51.2295L331.191 51.3596L331.252 51.4882L341.176 46.7422ZM339.271 81.0195L329.991 75.1139L329.977 75.1362L329.963 75.1586L339.271 81.0195ZM325.941 93.4707L331.065 103.205L331.131 103.17L331.197 103.134L325.941 93.4707ZM284.633 92.7383H273.633V98.835L278.803 102.066L284.633 92.7383ZM284.633 76.0391L289.552 66.2004L273.633 58.2407V76.0391H284.633ZM293.129 79.1152L290.185 89.7139L290.356 89.7615L290.529 89.8036L293.129 79.1152ZM318.324 75.5996L325.87 83.6031L325.877 83.5968L318.324 75.5996ZM320.814 52.4551L311.662 58.5568L311.793 58.7539L311.933 58.9453L320.814 52.4551ZM313.637 46.4492L308.985 56.4172L309.047 56.4462L309.109 56.4743L313.637 46.4492ZM287.123 44.3984V33.3984H276.123V44.3984H287.123ZM287.123 123.5V134.5H298.123V123.5H287.123ZM266.762 123.5H277.762V25.3555H266.762H255.762V123.5H266.762ZM266.762 25.3555V36.3555H307.338V25.3555V14.3555H266.762V25.3555ZM307.338 25.3555V36.3555C310.568 36.3555 313.745 36.9338 316.927 38.1359L320.814 27.8457L324.702 17.5555C319.095 15.4373 313.287 14.3555 307.338 14.3555V25.3555ZM320.814 27.8457L316.927 38.1359C319.991 39.2935 322.747 40.9874 325.247 43.2786L332.68 35.1699L340.113 27.0612C335.581 22.9071 330.427 19.7182 324.702 17.5555L320.814 27.8457ZM332.68 35.1699L325.484 43.4899C327.815 45.5062 329.704 48.0315 331.133 51.2295L341.176 46.7422L351.219 42.2548C348.546 36.2731 344.771 31.0836 339.875 26.8499L332.68 35.1699ZM341.176 46.7422L331.252 51.4882C332.577 54.259 333.398 57.7646 333.398 62.2695H344.398H355.398C355.398 55.0557 354.071 48.2098 351.099 41.9962L341.176 46.7422ZM344.398 62.2695H333.398C333.398 67.5648 332.155 71.7138 329.991 75.1139L339.271 81.0195L348.552 86.9252C353.224 79.5831 355.398 71.2321 355.398 62.2695H344.398ZM339.271 81.0195L329.963 75.1586C327.663 78.8108 324.627 81.6639 320.686 83.8074L325.941 93.4707L331.197 103.134C338.388 99.2228 344.239 93.7752 348.58 86.8805L339.271 81.0195ZM325.941 93.4707L320.818 83.7366C316.896 85.801 312.609 86.8652 307.777 86.8652V97.8652V108.865C316.031 108.865 323.854 107 331.065 103.205L325.941 93.4707ZM307.777 97.8652V86.8652C303.143 86.8652 299.489 86.4321 296.676 85.7288L294.008 96.4004L291.34 107.072C296.339 108.322 301.865 108.865 307.777 108.865V97.8652ZM294.008 96.4004L296.676 85.7288C293.425 84.9161 291.494 84.0547 290.463 83.4103L284.633 92.7383L278.803 102.066C282.459 104.352 286.778 105.932 291.34 107.072L294.008 96.4004ZM284.633 92.7383H295.633V76.0391H284.633H273.633V92.7383H284.633ZM284.633 76.0391L279.713 85.8778C282.73 87.3859 286.3 88.6347 290.185 89.7139L293.129 79.1152L296.073 68.5165C292.927 67.6426 290.833 66.8407 289.552 66.2004L284.633 76.0391ZM293.129 79.1152L290.529 89.8036C295.035 90.8997 299.67 91.4336 304.408 91.4336V80.4336V69.4336C301.334 69.4336 298.449 69.0886 295.729 68.4269L293.129 79.1152ZM304.408 80.4336V91.4336C312.346 91.4336 319.938 89.1969 325.87 83.6031L318.324 75.5996L310.778 67.5961C309.875 68.4476 308.189 69.4336 304.408 69.4336V80.4336ZM318.324 75.5996L325.877 83.5968C331.932 77.8782 334.598 70.362 334.598 62.2695H323.598H312.598C312.598 65.3099 311.748 66.6804 310.771 67.6025L318.324 75.5996ZM323.598 62.2695H334.598C334.598 56.5734 333.263 50.8469 329.696 45.9649L320.814 52.4551L311.933 58.9453C312.076 59.1414 312.598 59.9578 312.598 62.2695H323.598ZM320.814 52.4551L329.967 46.3534C327.009 41.9166 322.975 38.597 318.164 36.4241L313.637 46.4492L309.109 56.4743C310.353 57.0359 311.104 57.7201 311.662 58.5568L320.814 52.4551ZM313.637 46.4492L318.288 36.4812C313.778 34.3765 308.949 33.3984 303.969 33.3984V44.3984V55.3984C306.02 55.3984 307.636 55.7876 308.985 56.4172L313.637 46.4492ZM303.969 44.3984V33.3984H287.123V44.3984V55.3984H303.969V44.3984ZM287.123 44.3984H276.123V123.5H287.123H298.123V44.3984H287.123ZM287.123 123.5V112.5H266.762V123.5V134.5H287.123V123.5ZM361.684 123.5H350.684V134.5H361.684V123.5ZM361.684 49.5254V38.5254H350.684V49.5254H361.684ZM380.287 49.5254H391.287V38.5254H380.287V49.5254ZM380.287 123.5V134.5H391.287V123.5H380.287ZM380.287 82.1914H369.287L390.031 87.2955L380.287 82.1914ZM380.287 63.4414L370.763 57.9384L369.287 60.4921V63.4414H380.287ZM389.223 52.4551L382.181 44.0046L382.122 44.0535L382.064 44.1033L389.223 52.4551ZM408.266 49.3789H419.266V42.1255L412.599 39.2683L408.266 49.3789ZM408.266 70.3262L402.606 79.7586L419.266 89.7543V70.3262H408.266ZM403.578 68.4219L400.297 78.9212L400.674 79.039L401.059 79.1295L403.578 68.4219ZM387.758 71.9375L395.398 79.8509L395.403 79.8464L387.758 71.9375ZM361.684 123.5H372.684V49.5254H361.684H350.684V123.5H361.684ZM361.684 49.5254V60.5254H380.287V49.5254V38.5254H361.684V49.5254ZM380.287 49.5254H369.287V123.5H380.287H391.287V49.5254H380.287ZM380.287 123.5V112.5H361.684V123.5V134.5H380.287V123.5ZM380.287 82.1914H391.287V63.4414H380.287H369.287V82.1914H380.287ZM380.287 63.4414L389.812 68.9445C391.807 65.4907 394.019 62.8315 396.381 60.8069L389.223 52.4551L382.064 44.1033C377.59 47.9381 373.845 52.6031 370.763 57.9384L380.287 63.4414ZM389.223 52.4551L396.265 60.9055C397.892 59.5492 399.38 59.0605 401.088 59.0605V48.0605V37.0605C394.007 37.0605 387.584 39.5016 382.181 44.0046L389.223 52.4551ZM401.088 48.0605V59.0605C402.66 59.0605 403.523 59.3139 403.933 59.4895L408.266 49.3789L412.599 39.2683C408.907 37.6861 404.985 37.0605 401.088 37.0605V48.0605ZM408.266 49.3789H397.266V70.3262H408.266H419.266V49.3789H408.266ZM408.266 70.3262L413.925 60.8938C411.487 59.4311 408.866 58.3656 406.098 57.7143L403.578 68.4219L401.059 79.1295C401.611 79.2594 402.114 79.4634 402.606 79.7586L408.266 70.3262ZM403.578 68.4219L406.859 57.9226C404.104 57.0615 401.273 56.6895 398.451 56.6895V67.6895V78.6895C399.34 78.6895 399.928 78.8057 400.297 78.9212L403.578 68.4219ZM398.451 67.6895V56.6895C391.496 56.6895 385.162 59.1474 380.113 64.0286L387.758 71.9375L395.403 79.8464C396.213 79.0635 397.008 78.6895 398.451 78.6895V67.6895ZM387.758 71.9375L380.117 64.0241C376.304 67.7058 373.144 72.1219 370.543 77.0873L380.287 82.1914L390.031 87.2955C391.727 84.0578 393.548 81.6379 395.398 79.8509L387.758 71.9375ZM441.811 122.768L437.402 132.845L437.527 132.9L437.654 132.952L441.811 122.768ZM420.57 102.113L410.46 106.446L410.476 106.484L410.493 106.522L420.57 102.113ZM420.57 71.498L430.648 75.9071L430.665 75.8692L430.681 75.8312L420.57 71.498ZM429.213 59.0469L436.778 67.0324L436.833 66.9806L436.887 66.9281L429.213 59.0469ZM441.811 50.6973L446.041 60.8511L446.093 60.8297L446.144 60.8079L441.811 50.6973ZM472.279 50.6973L467.946 60.8079L468.034 60.8455L468.122 60.8816L472.279 50.6973ZM484.877 59.0469L477.099 66.8251L477.204 66.9301L477.312 67.0324L484.877 59.0469ZM493.52 71.498L483.409 75.8312L483.463 75.9569L483.52 76.0813L493.52 71.498ZM493.52 102.113L483.485 97.6078L483.463 97.6559L483.442 97.7043L493.52 102.113ZM484.877 114.418L477.312 106.432L477.259 106.483L477.206 106.534L484.877 114.418ZM472.279 122.768L476.436 132.952L476.525 132.916L476.612 132.878L472.279 122.768ZM466.859 105.336L472.036 115.042L472.092 115.012L472.149 114.981L466.859 105.336ZM474.184 98.1582L483.642 103.774L483.68 103.711L483.716 103.647L474.184 98.1582ZM466.859 68.1289L461.436 77.6992L461.623 77.8051L461.814 77.9037L466.859 68.1289ZM447.23 68.1289L452.276 77.9037L452.334 77.8738L452.391 77.8432L447.23 68.1289ZM439.906 75.1602L430.448 69.5442L430.382 69.655L430.319 69.7673L439.906 75.1602ZM439.906 98.1582L430.249 103.426L430.345 103.602L430.448 103.774L439.906 98.1582ZM447.23 105.336L441.941 114.981L442.124 115.081L442.311 115.175L447.23 105.336ZM457.045 125.697V114.697C453.042 114.697 449.381 113.977 445.967 112.583L441.811 122.768L437.654 132.952C443.81 135.465 450.305 136.697 457.045 136.697V125.697ZM441.811 122.768L446.22 112.69C442.696 111.148 439.565 109.073 436.778 106.432L429.213 114.418L421.648 122.403C426.283 126.795 431.55 130.285 437.402 132.845L441.811 122.768ZM429.213 114.418L436.778 106.432C434.136 103.93 432.11 101.045 430.648 97.7043L420.57 102.113L410.493 106.522C413.133 112.557 416.867 117.875 421.648 122.403L429.213 114.418ZM420.57 102.113L430.681 97.7802C429.246 94.4329 428.494 90.788 428.494 86.7324H417.494H406.494C406.494 93.6143 407.793 100.223 410.46 106.446L420.57 102.113ZM417.494 86.7324H428.494C428.494 82.6752 429.247 79.1103 430.648 75.9071L420.57 71.498L410.493 67.089C407.792 73.2608 406.494 79.8522 406.494 86.7324H417.494ZM420.57 71.498L430.681 75.8312C432.152 72.3981 434.176 69.4974 436.778 67.0324L429.213 59.0469L421.648 51.0614C416.828 55.6276 413.09 61.0277 410.46 67.1649L420.57 71.498ZM429.213 59.0469L436.887 66.9281C439.624 64.2629 442.66 62.2598 446.041 60.8511L441.811 50.6973L437.58 40.5434C431.586 43.041 426.224 46.6042 421.539 51.1657L429.213 59.0469ZM441.811 50.6973L446.144 60.8079C449.516 59.3626 453.115 58.6211 457.045 58.6211V47.6211V36.6211C450.232 36.6211 443.676 37.9303 437.477 40.5867L441.811 50.6973ZM457.045 47.6211V58.6211C460.975 58.6211 464.574 59.3626 467.946 60.8079L472.279 50.6973L476.612 40.5867C470.414 37.9303 463.857 36.6211 457.045 36.6211V47.6211ZM472.279 50.6973L468.122 60.8816C471.568 62.2881 474.533 64.2589 477.099 66.8251L484.877 59.0469L492.655 51.2687C487.995 46.6083 482.561 43.0127 476.436 40.5129L472.279 50.6973ZM484.877 59.0469L477.312 67.0324C479.914 69.4974 481.938 72.3981 483.409 75.8312L493.52 71.498L503.63 67.1649C501 61.0277 497.262 55.6276 492.442 51.0614L484.877 59.0469ZM493.52 71.498L483.52 76.0813C484.97 79.2444 485.742 82.7478 485.742 86.7324H496.742H507.742C507.742 79.7795 506.366 73.1266 503.519 66.9148L493.52 71.498ZM496.742 86.7324H485.742C485.742 90.7157 484.97 94.3 483.485 97.6078L493.52 102.113L503.555 106.619C506.366 100.356 507.742 93.6866 507.742 86.7324H496.742ZM493.52 102.113L483.442 97.7043C481.98 101.045 479.953 103.93 477.312 106.432L484.877 114.418L492.442 122.403C497.222 117.875 500.957 112.557 503.597 106.522L493.52 102.113ZM484.877 114.418L477.206 106.534C474.591 109.078 471.533 111.12 467.946 112.657L472.279 122.768L476.612 132.878C482.596 130.314 487.936 126.789 492.548 122.302L484.877 114.418ZM472.279 122.768L468.122 112.583C464.709 113.977 461.048 114.697 457.045 114.697V125.697V136.697C463.784 136.697 470.28 135.465 476.436 132.952L472.279 122.768ZM457.045 107.68V118.68C462.301 118.68 467.375 117.528 472.036 115.042L466.859 105.336L461.683 95.6301C460.484 96.2693 459.016 96.6797 457.045 96.6797V107.68ZM466.859 105.336L472.149 114.981C476.993 112.324 480.837 108.498 483.642 103.774L474.184 98.1582L464.725 92.5423C463.819 94.0683 462.78 95.0274 461.57 95.691L466.859 105.336ZM474.184 98.1582L483.716 103.647C486.695 98.4739 487.967 92.7013 487.967 86.7324H476.967H465.967C465.967 89.5526 465.383 91.3972 464.651 92.6696L474.184 98.1582ZM476.967 86.7324H487.967C487.967 80.6791 486.74 74.7614 483.642 69.5442L474.184 75.1602L464.725 80.7761C465.338 81.8089 465.967 83.6061 465.967 86.7324H476.967ZM474.184 75.1602L483.642 69.5442C480.807 64.7703 476.887 60.9258 471.904 58.3541L466.859 68.1289L461.814 77.9037C462.886 78.457 463.849 79.3 464.725 80.7761L474.184 75.1602ZM466.859 68.1289L472.283 58.5587C467.579 55.8931 462.416 54.6387 457.045 54.6387V65.6387V76.6387C458.901 76.6387 460.281 77.0444 461.436 77.6992L466.859 68.1289ZM457.045 65.6387V54.6387C451.763 54.6387 446.726 55.9411 442.07 58.4146L447.23 68.1289L452.391 77.8432C453.985 76.9964 455.491 76.6387 457.045 76.6387V65.6387ZM447.23 68.1289L442.185 58.3541C437.203 60.9258 433.282 64.7703 430.448 69.5442L439.906 75.1602L449.365 80.7761C450.241 79.3 451.204 78.457 452.276 77.9037L447.23 68.1289ZM439.906 75.1602L430.319 69.7673C427.411 74.9377 426.27 80.7711 426.27 86.7324H437.27H448.27C448.27 83.5141 448.886 81.6326 449.494 80.553L439.906 75.1602ZM437.27 86.7324H426.27C426.27 92.6057 427.452 98.2969 430.249 103.426L439.906 98.1582L449.563 92.8908C448.845 91.5742 448.27 89.6482 448.27 86.7324H437.27ZM439.906 98.1582L430.448 103.774C433.253 108.498 437.097 112.324 441.941 114.981L447.23 105.336L452.52 95.691C451.309 95.0274 450.271 94.0683 449.365 92.5423L439.906 98.1582ZM447.23 105.336L442.311 115.175C446.928 117.483 451.88 118.68 457.045 118.68V107.68V96.6797C455.374 96.6797 453.783 96.3136 452.15 95.4972L447.23 105.336ZM535.414 12.7578L529.755 22.1902L529.932 22.2966L530.113 22.3962L535.414 12.7578ZM540.102 17.2988L530.669 22.9583L530.734 23.0663L530.801 23.1728L540.102 17.2988ZM513.002 160.854L503.181 165.808L507.552 174.473L516.694 171.215L513.002 160.854ZM504.799 144.594L500.261 134.573L489.81 139.306L494.978 149.548L504.799 144.594ZM516.664 136.098L508.295 128.959L508.233 129.032L508.173 129.105L516.664 136.098ZM520.912 65.3457H531.912V54.3457H520.912V65.3457ZM509.047 65.3457H498.047V76.3457H509.047V65.3457ZM509.047 49.5254V38.5254H498.047V49.5254H509.047ZM539.516 49.5254H550.516V38.5254H539.516V49.5254ZM532.631 146.938L523.814 140.36L523.789 140.393L523.765 140.426L532.631 146.938ZM528.969 11V22C529.379 22 529.562 22.0749 529.755 22.1902L535.414 12.7578L541.073 3.32539C537.36 1.09701 533.246 0 528.969 0V11ZM535.414 12.7578L530.113 22.3962C530.323 22.5116 530.475 22.6353 530.669 22.9583L540.102 17.2988L549.534 11.6394C547.384 8.05612 544.412 5.1525 540.715 3.11944L535.414 12.7578ZM540.102 17.2988L530.801 23.1728C530.814 23.193 530.818 23.2025 530.819 23.2037C530.819 23.2049 530.821 23.2094 530.825 23.2219C530.83 23.2396 530.859 23.3504 530.859 23.5977H541.859H552.859C552.859 19.3223 551.76 15.1591 549.402 11.4249L540.102 17.2988ZM541.859 23.5977H530.859C530.859 23.6311 530.88 23.7399 530.669 24.0905L540.102 29.75L549.534 35.4095C551.667 31.8539 552.859 27.8611 552.859 23.5977H541.859ZM540.102 29.75L530.669 24.0905C530.426 24.4954 530.159 24.7622 529.755 25.0051L535.414 34.4375L541.073 43.8699C544.575 41.7691 547.433 38.9108 549.534 35.4095L540.102 29.75ZM535.414 34.4375L529.755 25.0051C529.562 25.1204 529.379 25.1953 528.969 25.1953V36.1953V47.1953C533.246 47.1953 537.36 46.0983 541.073 43.8699L535.414 34.4375ZM528.969 36.1953V25.1953C528.558 25.1953 528.375 25.1204 528.183 25.0051L522.523 34.4375L516.864 43.8699C520.578 46.0983 524.692 47.1953 528.969 47.1953V36.1953ZM522.523 34.4375L528.183 25.0051C527.778 24.7622 527.511 24.4954 527.268 24.0905L517.836 29.75L508.404 35.4095C510.504 38.9108 513.363 41.7691 516.864 43.8699L522.523 34.4375ZM517.836 29.75L527.268 24.0905C527.058 23.7399 527.078 23.6311 527.078 23.5977H516.078H505.078C505.078 27.8611 506.27 31.8539 508.404 35.4095L517.836 29.75ZM516.078 23.5977H527.078C527.078 23.1938 527.144 23.0524 527.149 23.0401C527.155 23.0274 527.213 22.8775 527.511 22.5913L519.887 14.6621L512.263 6.73295C507.571 11.2437 505.078 17.0833 505.078 23.5977H516.078ZM519.887 14.6621L527.511 22.5913C528.005 22.1159 528.302 22 528.969 22V11V0C522.604 0 516.846 2.32548 512.263 6.73295L519.887 14.6621ZM513.002 160.854L522.823 155.899L514.62 139.639L504.799 144.594L494.978 149.548L503.181 165.808L513.002 160.854ZM504.799 144.594L509.336 154.614C515.573 151.79 521.066 148.056 525.155 143.09L516.664 136.098L508.173 129.105C506.794 130.779 504.376 132.71 500.261 134.573L504.799 144.594ZM516.664 136.098L525.033 143.236C529.868 137.568 531.912 130.635 531.912 123.354H520.912H509.912C509.912 126.423 509.124 127.987 508.295 128.959L516.664 136.098ZM520.912 123.354H531.912V65.3457H520.912H509.912V123.354H520.912ZM520.912 65.3457V54.3457H509.047V65.3457V76.3457H520.912V65.3457ZM509.047 65.3457H520.047V49.5254H509.047H498.047V65.3457H509.047ZM509.047 49.5254V60.5254H539.516V49.5254V38.5254H509.047V49.5254ZM539.516 49.5254H528.516V122.621H539.516H550.516V49.5254H539.516ZM539.516 122.621H528.516C528.516 131.044 526.602 136.622 523.814 140.36L532.631 146.938L541.448 153.515C547.839 144.948 550.516 134.315 550.516 122.621H539.516ZM532.631 146.938L523.765 140.426C520.678 144.63 516.082 148.079 509.31 150.492L513.002 160.854L516.694 171.215C526.914 167.574 535.404 161.745 541.497 153.449L532.631 146.938ZM582.729 122.914L578.572 133.098L578.661 133.135L578.752 133.17L582.729 122.914ZM569.984 114.857L562.425 122.849L562.478 122.899L562.532 122.948L569.984 114.857ZM563.246 67.543L572.921 72.777L572.939 72.7442L572.956 72.7113L563.246 67.543ZM614.516 52.3086L608.83 61.7253L608.869 61.7487L608.908 61.7718L614.516 52.3086ZM626.527 65.3457L616.654 70.1956L616.706 70.3004L616.759 70.4041L626.527 65.3457ZM630.775 92.2988V103.299H641.775V92.2988H630.775ZM575.551 92.2988H564.551V103.299H575.551V92.2988ZM575.551 79.5547V68.5547H564.551V79.5547H575.551ZM612.904 79.5547V90.5547H624.515L623.888 78.961L612.904 79.5547ZM609.975 70.7656L601.175 77.3656L601.242 77.456L601.312 77.545L609.975 70.7656ZM603.529 65.6387L598.92 75.6262L599.08 75.7004L599.243 75.7693L603.529 65.6387ZM585.512 66.8105L579.267 57.7552L579.192 57.8067L579.118 57.8595L585.512 66.8105ZM587.27 106.068L581.904 115.671L581.962 115.704L582.022 115.736L587.27 106.068ZM613.49 105.629L608.659 95.7467L608.615 95.7682L608.571 95.7902L613.49 105.629ZM623.891 99.0371H634.891V74.62L616.602 90.7981L623.891 99.0371ZM623.891 116.322L631.396 124.364L634.891 121.102V116.322H623.891ZM608.656 124.232L605.634 113.656L605.593 113.667L605.552 113.679L608.656 124.232ZM598.109 125.697V114.697C593.911 114.697 590.141 113.99 586.705 112.658L582.729 122.914L578.752 133.17C584.886 135.549 591.37 136.697 598.109 136.697V125.697ZM582.729 122.914L586.885 112.73C583.284 111.26 580.159 109.274 577.437 106.766L569.984 114.857L562.532 122.948C567.232 127.277 572.602 130.662 578.572 133.098L582.729 122.914ZM569.984 114.857L577.544 106.866C575.032 104.491 573.043 101.667 571.566 98.2902L561.488 102.699L551.411 107.108C554.035 113.107 557.71 118.388 562.425 122.849L569.984 114.857ZM561.488 102.699L571.566 98.2902C570.175 95.1114 569.412 91.502 569.412 87.3184H558.412H547.412C547.412 94.2675 548.7 100.912 551.411 107.108L561.488 102.699ZM558.412 87.3184H569.412C569.412 81.7933 570.626 77.0191 572.921 72.777L563.246 67.543L553.571 62.309C549.421 69.9809 547.412 78.3903 547.412 87.3184H558.412ZM563.246 67.543L572.956 72.7113C575.308 68.2924 578.46 64.887 582.492 62.3147L576.576 53.041L570.66 43.7673C563.364 48.4215 557.629 54.6842 553.536 62.3746L563.246 67.543ZM576.576 53.041L582.492 62.3147C586.255 59.9146 590.616 58.6211 595.912 58.6211V47.6211V36.6211C586.755 36.6211 578.226 38.9409 570.66 43.7673L576.576 53.041ZM595.912 47.6211V58.6211C601.528 58.6211 605.678 59.8223 608.83 61.7253L614.516 52.3086L620.201 42.8919C613.001 38.5449 604.749 36.6211 595.912 36.6211V47.6211ZM614.516 52.3086L608.908 61.7718C612.318 63.7929 614.851 66.525 616.654 70.1956L626.527 65.3457L636.4 60.4958C632.735 53.0336 627.26 47.0743 620.123 42.8454L614.516 52.3086ZM626.527 65.3457L616.759 70.4041C618.652 74.0595 619.775 78.6175 619.775 84.3887H630.775H641.775C641.775 75.7067 640.066 67.5694 636.295 60.2873L626.527 65.3457ZM630.775 84.3887H619.775V92.2988H630.775H641.775V84.3887H630.775ZM630.775 92.2988V81.2988H575.551V92.2988V103.299H630.775V92.2988ZM575.551 92.2988H586.551V79.5547H575.551H564.551V92.2988H575.551ZM575.551 79.5547V90.5547H612.904V79.5547V68.5547H575.551V79.5547ZM612.904 79.5547L623.888 78.961C623.604 73.7027 622.117 68.4322 618.637 63.9862L609.975 70.7656L601.312 77.545C601.348 77.5913 601.814 78.1801 601.92 80.1484L612.904 79.5547ZM609.975 70.7656L618.775 64.1656C615.926 60.368 612.258 57.3874 607.815 55.508L603.529 65.6387L599.243 75.7693C599.879 76.0384 600.507 76.4758 601.175 77.3656L609.975 70.7656ZM603.529 65.6387L608.139 55.6511C604.136 53.8035 599.875 52.8809 595.473 52.8809V63.8809V74.8809C596.734 74.8809 597.845 75.1301 598.92 75.6262L603.529 65.6387ZM595.473 63.8809V52.8809C589.683 52.8809 584.13 54.4011 579.267 57.7552L585.512 66.8105L591.757 75.8659C592.557 75.3137 593.646 74.8809 595.473 74.8809V63.8809ZM585.512 66.8105L579.118 57.8595C574.566 61.1111 571.257 65.5008 569.014 70.5462L579.066 75.0137L589.118 79.4812C590.001 77.4953 590.989 76.4163 591.905 75.7616L585.512 66.8105ZM579.066 75.0137L569.014 70.5462C566.706 75.7403 565.723 81.4204 565.723 87.3184H576.723H587.723C587.723 83.8413 588.302 81.3183 589.118 79.4812L579.066 75.0137ZM576.723 87.3184H565.723C565.723 93.1903 567.037 98.8407 569.973 103.94L579.506 98.4512L589.039 92.9626C588.264 91.6164 587.723 89.8449 587.723 87.3184H576.723ZM579.506 98.4512L569.973 103.94C572.844 108.926 576.89 112.869 581.904 115.671L587.27 106.068L592.636 96.466C591.009 95.5569 589.879 94.4218 589.039 92.9626L579.506 98.4512ZM587.27 106.068L582.022 115.736C587.214 118.555 592.908 119.852 598.842 119.852V108.852V97.8516C596.182 97.8516 594.161 97.2929 592.518 96.401L587.27 106.068ZM598.842 108.852V119.852C605.781 119.852 612.386 118.479 618.41 115.468L613.49 105.629L608.571 95.7902C606.001 97.0753 602.84 97.8516 598.842 97.8516V108.852ZM613.49 105.629L618.322 115.511C623.249 113.102 627.651 110.397 631.179 107.276L623.891 99.0371L616.602 90.7981C615.052 92.1693 612.521 93.8587 608.659 95.7467L613.49 105.629ZM623.891 99.0371H612.891V116.322H623.891H634.891V99.0371H623.891ZM623.891 116.322L616.385 108.281C615.815 108.813 614.602 109.729 612.396 110.955L617.738 120.57L623.08 130.186C626.148 128.482 629.037 126.566 631.396 124.364L623.891 116.322ZM617.738 120.57L612.396 110.955C610.61 111.947 608.384 112.87 605.634 113.656L608.656 124.232L611.678 134.809C615.765 133.642 619.593 132.123 623.08 130.186L617.738 120.57ZM608.656 124.232L605.552 113.679C603.31 114.339 600.845 114.697 598.109 114.697V125.697V136.697C602.795 136.697 607.362 136.079 611.76 134.785L608.656 124.232ZM665.932 122.621L661.523 132.699L661.561 132.715L661.599 132.732L665.932 122.621ZM645.424 101.674L635.196 105.722L635.232 105.814L635.27 105.905L645.424 101.674ZM645.424 72.084L635.27 67.8532L635.232 67.944L635.196 68.0354L645.424 72.084ZM653.627 59.6328L661.511 67.3037L661.562 67.2512L661.612 67.198L653.627 59.6328ZM665.932 50.8438L661.426 40.8088L661.387 40.8263L661.348 40.844L665.932 50.8438ZM694.936 50.2578L689.905 60.04L689.96 60.0686L690.016 60.0965L694.936 50.2578ZM703.285 55.3848H714.285V50.137L710.206 46.8351L703.285 55.3848ZM703.285 72.5234L696.795 81.4047L714.285 94.186V72.5234H703.285ZM694.643 67.8359L690.502 78.0271L690.557 78.049L690.611 78.0704L694.643 67.8359ZM672.67 68.7148L667.181 59.182L667.117 59.2188L667.054 59.2564L672.67 68.7148ZM672.377 105.043L666.761 114.501L666.933 114.604L667.11 114.7L672.377 105.043ZM694.643 105.775L690.611 95.5409L690.557 95.5623L690.502 95.5843L694.643 105.775ZM703.285 101.234H714.285V80.2401L697.024 92.1903L703.285 101.234ZM703.285 118.227L710.444 126.578L714.285 123.286V118.227H703.285ZM694.936 123.354L699.509 133.358L699.571 133.329L699.633 133.3L694.936 123.354ZM681.459 125.697V114.697C677.278 114.697 673.588 113.935 670.265 112.51L665.932 122.621L661.599 132.732C667.846 135.409 674.507 136.697 681.459 136.697V125.697ZM665.932 122.621L670.341 112.543C666.936 111.054 664.02 109.033 661.511 106.454L653.627 114.125L645.743 121.796C650.265 126.444 655.552 130.087 661.523 132.699L665.932 122.621ZM653.627 114.125L661.511 106.454C658.969 103.842 657.002 100.861 655.578 97.4431L645.424 101.674L635.27 105.905C637.752 111.862 641.254 117.182 645.743 121.796L653.627 114.125ZM645.424 101.674L655.652 97.6253C654.32 94.2612 653.641 90.7063 653.641 86.8789H642.641H631.641C631.641 93.4031 632.817 99.7114 635.196 105.722L645.424 101.674ZM642.641 86.8789H653.641C653.641 83.0515 654.32 79.4966 655.652 76.1325L645.424 72.084L635.196 68.0354C632.817 74.0464 631.641 80.3547 631.641 86.8789H642.641ZM645.424 72.084L655.578 76.3148C657.002 72.8972 658.969 69.9161 661.511 67.3037L653.627 59.6328L645.743 51.9619C641.254 56.576 637.752 61.8958 635.27 67.8532L645.424 72.084ZM653.627 59.6328L661.612 67.198C664.152 64.5179 667.095 62.4108 670.515 60.8435L665.932 50.8438L661.348 40.844C655.393 43.5736 650.134 47.3259 645.641 52.0676L653.627 59.6328ZM665.932 50.8438L670.437 60.8787C673.72 59.4049 677.349 58.6211 681.459 58.6211V47.6211V36.6211C674.436 36.6211 667.714 37.9857 661.426 40.8088L665.932 50.8438ZM681.459 47.6211V58.6211C686.005 58.6211 688.583 59.3601 689.905 60.04L694.936 50.2578L699.966 40.4756C694.452 37.6399 688.046 36.6211 681.459 36.6211V47.6211ZM694.936 50.2578L690.016 60.0965C693.13 61.6535 695.153 62.9543 696.364 63.9345L703.285 55.3848L710.206 46.8351C707.316 44.4949 703.772 42.3778 699.855 40.4191L694.936 50.2578ZM703.285 55.3848H692.285V72.5234H703.285H714.285V55.3848H703.285ZM703.285 72.5234L709.775 63.6421C706.406 61.1797 702.683 59.1808 698.674 57.6014L694.643 67.8359L690.611 78.0704C693.047 79.0302 695.087 80.1563 696.795 81.4047L703.285 72.5234ZM694.643 67.8359L698.783 57.6448C693.961 55.6861 688.599 54.9316 683.07 54.9316V65.9316V76.9316C686.721 76.9316 689.074 77.4468 690.502 78.0271L694.643 67.8359ZM683.07 65.9316V54.9316C677.429 54.9316 672.07 56.3674 667.181 59.182L672.67 68.7148L678.159 78.2477C679.715 77.3513 681.29 76.9316 683.07 76.9316V65.9316ZM672.67 68.7148L667.054 59.2564C662.347 62.0512 658.536 65.8626 655.741 70.5696L665.199 76.1855L674.658 81.8015C675.574 80.2585 676.743 79.0894 678.286 78.1732L672.67 68.7148ZM665.199 76.1855L655.741 70.5696C652.776 75.5636 651.416 81.1054 651.416 86.8789H662.416H673.416C673.416 84.6446 673.912 83.0575 674.658 81.8015L665.199 76.1855ZM662.416 86.8789H651.416C651.416 92.5469 652.677 98.0081 655.465 102.965L665.053 97.5723L674.64 92.1794C673.913 90.8865 673.416 89.2187 673.416 86.8789H662.416ZM665.053 97.5723L655.465 102.965C658.181 107.794 662.003 111.676 666.761 114.501L672.377 105.043L677.993 95.5846C676.501 94.6989 675.44 93.6009 674.64 92.1794L665.053 97.5723ZM672.377 105.043L667.11 114.7C672.052 117.395 677.445 118.68 683.07 118.68V107.68V96.6797C680.883 96.6797 679.148 96.2061 677.644 95.3861L672.377 105.043ZM683.07 107.68V118.68C688.599 118.68 693.961 117.925 698.783 115.967L694.643 105.775L690.502 95.5843C689.074 96.1646 686.721 96.6797 683.07 96.6797V107.68ZM694.643 105.775L698.674 116.01C702.59 114.467 706.234 112.572 709.546 110.278L703.285 101.234L697.024 92.1903C695.258 93.4128 693.141 94.5443 690.611 95.5409L694.643 105.775ZM703.285 101.234H692.285V118.227H703.285H714.285V101.234H703.285ZM703.285 118.227L696.126 109.875C695.069 110.781 693.219 111.999 690.238 113.407L694.936 123.354L699.633 133.3C703.683 131.388 707.4 129.188 710.444 126.578L703.285 118.227ZM694.936 123.354L690.362 113.349C688.9 114.018 686.142 114.697 681.459 114.697V125.697V136.697C687.909 136.697 694.135 135.814 699.509 133.358L694.936 123.354ZM738.441 122.768L733.099 132.383L733.155 132.414L733.211 132.444L738.441 122.768ZM730.092 114.564L720.525 119.994L720.557 120.051L720.59 120.107L730.092 114.564ZM727.016 65.0527H738.016V54.0527H727.016V65.0527ZM714.711 65.0527H703.711V76.0527H714.711V65.0527ZM714.711 55.5312L711.105 45.1389L703.711 47.7044V55.5312H714.711ZM726.43 46.3027L717.4 40.021L717.353 40.0878L717.308 40.1553L726.43 46.3027ZM734.633 29.457V18.457H726.812L724.243 25.8433L734.633 29.457ZM745.619 29.457H756.619V18.457H745.619V29.457ZM745.619 49.5254H734.619V60.5254H745.619V49.5254ZM767.885 49.5254H778.885V38.5254H767.885V49.5254ZM767.885 65.0527V76.0527H778.885V65.0527H767.885ZM745.619 65.0527V54.0527H734.619V65.0527H745.619ZM748.109 104.896L739.728 112.021L739.92 112.246L740.124 112.462L748.109 104.896ZM769.057 103.578H780.057V84.3455L763.479 94.0968L769.057 103.578ZM769.057 119.398L777.042 126.964L780.057 123.782V119.398H769.057ZM761.586 123.939L757.827 113.602L757.775 113.621L757.724 113.64L761.586 123.939ZM750.453 125.697V114.697C747.754 114.697 745.567 114.115 743.672 113.091L738.441 122.768L733.211 132.444C738.542 135.326 744.364 136.697 750.453 136.697V125.697ZM738.441 122.768L743.783 113.152C742.017 112.17 740.661 110.852 739.593 109.022L730.092 114.564L720.59 120.107C723.624 125.308 727.835 129.459 733.099 132.383L738.441 122.768ZM730.092 114.564L739.658 109.135C738.7 107.446 738.016 105.135 738.016 101.82H727.016H716.016C716.016 108.271 717.382 114.456 720.525 119.994L730.092 114.564ZM727.016 101.82H738.016V65.0527H727.016H716.016V101.82H727.016ZM727.016 65.0527V54.0527H714.711V65.0527V76.0527H727.016V65.0527ZM714.711 65.0527H725.711V55.5312H714.711H703.711V65.0527H714.711ZM714.711 55.5312L718.316 65.9236C725.512 63.427 731.292 58.7711 735.552 52.4501L726.43 46.3027L717.308 40.1553C715.513 42.8188 713.48 44.3151 711.105 45.1389L714.711 55.5312ZM726.43 46.3027L735.46 52.5844C739.3 47.0635 742.443 40.4863 745.022 33.0708L734.633 29.457L724.243 25.8433C722.135 31.9044 719.809 36.5576 717.4 40.021L726.43 46.3027ZM734.633 29.457V40.457H745.619V29.457V18.457H734.633V29.457ZM745.619 29.457H734.619V49.5254H745.619H756.619V29.457H745.619ZM745.619 49.5254V60.5254H767.885V49.5254V38.5254H745.619V49.5254ZM767.885 49.5254H756.885V65.0527H767.885H778.885V49.5254H767.885ZM767.885 65.0527V54.0527H745.619V65.0527V76.0527H767.885V65.0527ZM745.619 65.0527H734.619V96.9863H745.619H756.619V65.0527H745.619ZM745.619 96.9863H734.619C734.619 102.131 735.93 107.552 739.728 112.021L748.109 104.896L756.491 97.7724C756.578 97.8747 756.644 97.9749 756.689 98.0577C756.732 98.1387 756.742 98.1769 756.734 98.151C756.715 98.091 756.619 97.7439 756.619 96.9863H745.619ZM748.109 104.896L740.124 112.462C744.533 117.115 750.336 118.68 755.727 118.68V107.68V96.6797C755.07 96.6797 754.927 96.586 755.107 96.652C755.203 96.687 755.362 96.7574 755.554 96.8817C755.748 97.0073 755.933 97.1609 756.095 97.3313L748.109 104.896ZM755.727 107.68V118.68C759.724 118.68 763.741 118.084 767.509 116.542L763.344 106.361L759.179 96.1803C758.649 96.397 757.588 96.6797 755.727 96.6797V107.68ZM763.344 106.361L767.509 116.542C770.049 115.503 772.44 114.35 774.634 113.059L769.057 103.578L763.479 94.0968C762.353 94.7592 760.936 95.4616 759.179 96.1803L763.344 106.361ZM769.057 103.578H758.057V119.398H769.057H780.057V103.578H769.057ZM769.057 119.398L761.071 111.833C760.819 112.1 759.968 112.823 757.827 113.602L761.586 123.939L765.345 134.277C769.65 132.712 773.779 130.408 777.042 126.964L769.057 119.398ZM761.586 123.939L757.724 113.64C756.132 114.237 753.792 114.697 750.453 114.697V125.697V136.697C755.708 136.697 760.79 135.986 765.448 134.239L761.586 123.939Z" fill="#A4C6F2" mask="url(#path-1-outside-1_174_7)"/>
</svg>
