<svg width="669" height="153" viewBox="0 0 669 153" fill="none" xmlns="http://www.w3.org/2000/svg">
<mask id="path-1-outside-1_174_7" maskUnits="userSpaceOnUse" x="-0.875" y="0" width="670" height="153" fill="black">
<rect fill="white" x="-0.875" width="670" height="153"/>
<path d="M11 107V22.625H16.875L52.625 59.875L88.125 22.625H94V107H76.625V56L55.125 79.5H50.125L28.375 56V107H11ZM115.375 137L140.375 91.5L161.125 43.875H179.25L133.375 137H115.375ZM136.5 106.75L107.125 43.875H125.625L148.375 94.875L136.5 106.75ZM229.25 107V23.25H263.875C267.792 23.25 271.625 23.9583 275.375 25.375C279.125 26.7917 282.5 28.875 285.5 31.625C288.583 34.2917 291 37.5833 292.75 41.5C294.583 45.3333 295.5 49.75 295.5 54.75C295.5 60.8333 294.042 66.1667 291.125 70.75C288.292 75.25 284.5 78.7917 279.75 81.375C275 83.875 269.833 85.125 264.25 85.125C259.75 85.125 255.833 84.7083 252.5 83.875C249.167 83.0417 246.5 82 244.5 80.75V66.5C246.333 67.4167 248.75 68.2917 251.75 69.125C254.833 69.875 258.042 70.25 261.375 70.25C266.375 70.25 270.333 68.875 273.25 66.125C276.25 63.2917 277.75 59.5 277.75 54.75C277.75 51.3333 276.958 48.5417 275.375 46.375C273.875 44.125 271.833 42.4167 269.25 41.25C266.75 40.0833 264 39.5 261 39.5H246.625V107H229.25ZM310.25 107V43.875H326.125V107H310.25ZM326.125 71.75V55.75C328.292 52 330.833 48.875 333.75 46.375C336.75 43.875 340.125 42.625 343.875 42.625C346.208 42.625 348.25 43 350 43.75V61.625C348.75 60.875 347.417 60.3333 346 60C344.667 59.5833 343.208 59.375 341.625 59.375C338.042 59.375 335 60.5833 332.5 63C330.083 65.3333 327.958 68.25 326.125 71.75ZM391.625 108.875C387.042 108.875 382.708 108.042 378.625 106.375C374.625 104.625 371.042 102.25 367.875 99.25C364.708 96.25 362.25 92.75 360.5 88.75C358.75 84.6667 357.875 80.2917 357.875 75.625C357.875 70.9583 358.75 66.625 360.5 62.625C362.25 58.5417 364.708 55 367.875 52C371.042 48.9167 374.625 46.5417 378.625 44.875C382.708 43.125 387.042 42.25 391.625 42.25C396.208 42.25 400.542 43.125 404.625 44.875C408.708 46.5417 412.292 48.9167 415.375 52C418.542 55 421 58.5417 422.75 62.625C424.583 66.625 425.5 70.9583 425.5 75.625C425.5 80.2917 424.583 84.6667 422.75 88.75C421 92.75 418.542 96.25 415.375 99.25C412.292 102.25 408.708 104.625 404.625 106.375C400.542 108.042 396.208 108.875 391.625 108.875ZM391.625 93.5C394.708 93.5 397.5 92.8333 400 91.5C402.583 90.0833 404.667 88.0417 406.25 85.375C407.833 82.625 408.625 79.375 408.625 75.625C408.625 71.7083 407.833 68.4167 406.25 65.75C404.667 63.0833 402.583 61.0833 400 59.75C397.5 58.3333 394.708 57.625 391.625 57.625C388.708 57.625 385.917 58.3333 383.25 59.75C380.667 61.0833 378.583 63.0833 377 65.75C375.5 68.4167 374.75 71.7083 374.75 75.625C374.75 79.375 375.5 82.625 377 85.375C378.583 88.0417 380.667 90.0833 383.25 91.5C385.917 92.8333 388.708 93.5 391.625 93.5ZM453 11C455 11 456.833 11.5 458.5 12.5C460.167 13.4167 461.5 14.7083 462.5 16.375C463.5 17.9583 464 19.75 464 21.75C464 23.5833 463.5 25.3333 462.5 27C461.5 28.6667 460.167 30 458.5 31C456.833 32 455 32.5 453 32.5C451 32.5 449.167 32 447.5 31C445.833 30 444.5 28.6667 443.5 27C442.5 25.3333 442 23.5833 442 21.75C442 18.75 443.083 16.2083 445.25 14.125C447.417 12.0417 450 11 453 11ZM439.375 138.875L432.375 125C436.792 123 440.167 120.583 442.5 117.75C444.917 114.917 446.125 111.292 446.125 106.875V57.375H436V43.875H462V106.25C462 114.833 460.042 121.75 456.125 127C452.208 132.333 446.625 136.292 439.375 138.875ZM512 108.875C507.333 108.875 502.958 108.083 498.875 106.5C494.792 104.833 491.167 102.542 488 99.625C484.917 96.7083 482.5 93.25 480.75 89.25C479 85.25 478.125 80.875 478.125 76.125C478.125 69.9583 479.5 64.3333 482.25 59.25C485 54.0833 488.792 49.9583 493.625 46.875C498.458 43.7917 503.958 42.25 510.125 42.25C516.292 42.25 521.583 43.5833 526 46.25C530.5 48.9167 533.917 52.625 536.25 57.375C538.667 62.0417 539.875 67.4583 539.875 73.625V80.375H492.75V69.5H524.625C524.458 66.4167 523.625 63.9167 522.125 62C520.625 60 518.792 58.5417 516.625 57.625C514.458 56.625 512.167 56.125 509.75 56.125C506.5 56.125 503.667 56.9583 501.25 58.625C498.917 60.2917 497.083 62.625 495.75 65.625C494.417 68.625 493.75 72.125 493.75 76.125C493.75 79.7083 494.542 82.875 496.125 85.625C497.708 88.375 499.917 90.5417 502.75 92.125C505.667 93.7083 508.958 94.5 512.625 94.5C517.292 94.5 521.458 93.5833 525.125 91.75C528.875 89.9167 531.833 88.0417 534 86.125V100.875C532.75 102.042 531 103.25 528.75 104.5C526.5 105.75 523.917 106.792 521 107.625C518.167 108.458 515.167 108.875 512 108.875ZM583.125 108.875C578.375 108.875 573.958 108 569.875 106.25C565.875 104.5 562.375 102.083 559.375 99C556.375 95.9167 554.042 92.375 552.375 88.375C550.792 84.375 550 80.1667 550 75.75C550 71.3333 550.792 67.125 552.375 63.125C554.042 59.125 556.375 55.5833 559.375 52.5C562.375 49.3333 565.875 46.8333 569.875 45C573.958 43.1667 578.375 42.25 583.125 42.25C587.875 42.25 591.708 43 594.625 44.5C597.625 46 600 47.4583 601.75 48.875V63.5C599.583 61.9167 597.125 60.5833 594.375 59.5C591.708 58.4167 588.417 57.875 584.5 57.875C581.333 57.875 578.375 58.6667 575.625 60.25C572.958 61.8333 570.833 63.9583 569.25 66.625C567.667 69.2917 566.875 72.3333 566.875 75.75C566.875 79.1667 567.625 82.2083 569.125 84.875C570.625 87.5417 572.708 89.6667 575.375 91.25C578.125 92.75 581.167 93.5 584.5 93.5C588.417 93.5 591.708 92.9583 594.375 91.875C597.125 90.7917 599.583 89.5 601.75 88V102.5C600 104 597.625 105.458 594.625 106.875C591.708 108.208 587.875 108.875 583.125 108.875ZM642 108.875C638.25 108.875 634.833 108.042 631.75 106.375C628.75 104.708 626.375 102.375 624.625 99.375C622.875 96.2917 622 92.6667 622 88.5V57.125H611.5V49C615.583 47.5833 618.917 44.9583 621.5 41.125C624.167 37.2917 626.5 32.5 628.5 26.75H637.875V43.875H656.875V57.125H637.875V84.375C637.875 87.2083 638.583 89.4583 640 91.125C641.5 92.7083 643.667 93.5 646.5 93.5C649 93.5 651.167 93.125 653 92.375C654.833 91.625 656.458 90.8333 657.875 90V103.5C656.375 105.083 654.25 106.375 651.5 107.375C648.833 108.375 645.667 108.875 642 108.875Z"/>
</mask>
<path d="M11 107H0V118H11V107ZM11 22.625V11.625H0V22.625H11ZM16.875 22.625L24.8113 15.0083L21.5643 11.625H16.875V22.625ZM52.625 59.875L44.6887 67.4917L52.6529 75.7901L60.588 67.4639L52.625 59.875ZM88.125 22.625V11.625H83.4129L80.162 15.0361L88.125 22.625ZM94 22.625H105V11.625H94V22.625ZM94 107V118H105V107H94ZM76.625 107H65.625V118H76.625V107ZM76.625 56H87.625V27.6808L68.5091 48.5749L76.625 56ZM55.125 79.5V90.5H59.9702L63.2409 86.9251L55.125 79.5ZM50.125 79.5L42.052 86.9718L45.3175 90.5H50.125V79.5ZM28.375 56L36.448 48.5282L17.375 27.9207V56H28.375ZM28.375 107V118H39.375V107H28.375ZM11 107H22V22.625H11H0V107H11ZM11 22.625V33.625H16.875V22.625V11.625H11V22.625ZM16.875 22.625L8.93867 30.2417L44.6887 67.4917L52.625 59.875L60.5613 52.2583L24.8113 15.0083L16.875 22.625ZM52.625 59.875L60.588 67.4639L96.088 30.2139L88.125 22.625L80.162 15.0361L44.662 52.2861L52.625 59.875ZM88.125 22.625V33.625H94V22.625V11.625H88.125V22.625ZM94 22.625H83V107H94H105V22.625H94ZM94 107V96H76.625V107V118H94V107ZM76.625 107H87.625V56H76.625H65.625V107H76.625ZM76.625 56L68.5091 48.5749L47.0091 72.0749L55.125 79.5L63.2409 86.9251L84.7409 63.4251L76.625 56ZM55.125 79.5V68.5H50.125V79.5V90.5H55.125V79.5ZM50.125 79.5L58.198 72.0282L36.448 48.5282L28.375 56L20.302 63.4718L42.052 86.9718L50.125 79.5ZM28.375 56H17.375V107H28.375H39.375V56H28.375ZM28.375 107V96H11V107V118H28.375V107ZM115.375 137L105.734 131.703L96.78 148H115.375V137ZM140.375 91.5L150.016 96.797L150.258 96.3555L150.459 95.8937L140.375 91.5ZM161.125 43.875V32.875H153.919L151.041 39.4813L161.125 43.875ZM179.25 43.875L189.118 48.736L196.931 32.875H179.25V43.875ZM133.375 137V148H140.218L143.243 141.861L133.375 137ZM136.5 106.75L126.534 111.406L133.178 125.628L144.278 114.528L136.5 106.75ZM107.125 43.875V32.875H89.8445L97.159 48.5311L107.125 43.875ZM125.625 43.875L135.671 39.3938L132.763 32.875H125.625V43.875ZM148.375 94.875L156.153 102.653L161.503 97.3033L158.421 90.3938L148.375 94.875ZM115.375 137L125.016 142.297L150.016 96.797L140.375 91.5L130.734 86.203L105.734 131.703L115.375 137ZM140.375 91.5L150.459 95.8937L171.209 48.2687L161.125 43.875L151.041 39.4813L130.291 87.1063L140.375 91.5ZM161.125 43.875V54.875H179.25V43.875V32.875H161.125V43.875ZM179.25 43.875L169.382 39.014L123.507 132.139L133.375 137L143.243 141.861L189.118 48.736L179.25 43.875ZM133.375 137V126H115.375V137V148H133.375V137ZM136.5 106.75L146.466 102.094L117.091 39.2189L107.125 43.875L97.159 48.5311L126.534 111.406L136.5 106.75ZM107.125 43.875V54.875H125.625V43.875V32.875H107.125V43.875ZM125.625 43.875L115.579 48.3562L138.329 99.3562L148.375 94.875L158.421 90.3938L135.671 39.3938L125.625 43.875ZM148.375 94.875L140.597 87.0968L128.722 98.9718L136.5 106.75L144.278 114.528L156.153 102.653L148.375 94.875ZM229.25 107H218.25V118H229.25V107ZM229.25 23.25V12.25H218.25V23.25H229.25ZM285.5 31.625L278.067 39.7337L278.184 39.8411L278.304 39.945L285.5 31.625ZM292.75 41.5L282.707 45.9873L282.765 46.1175L282.827 46.246L292.75 41.5ZM291.125 70.75L281.845 64.8444L281.831 64.8667L281.816 64.8891L291.125 70.75ZM279.75 81.375L284.873 91.1091L284.94 91.0742L285.005 91.0383L279.75 81.375ZM252.5 83.875L249.832 94.5466L252.5 83.875ZM244.5 80.75H233.5V86.8467L238.67 90.078L244.5 80.75ZM244.5 66.5L249.419 56.6613L233.5 48.7016V66.5H244.5ZM251.75 69.125L248.806 79.7237L248.977 79.7713L249.15 79.8133L251.75 69.125ZM273.25 66.125L280.796 74.1285L280.803 74.1221L273.25 66.125ZM275.375 46.375L266.222 52.4767L266.354 52.6739L266.494 52.8652L275.375 46.375ZM269.25 41.25L264.598 51.218L264.66 51.2469L264.723 51.2751L269.25 41.25ZM246.625 39.5V28.5H235.625V39.5H246.625ZM246.625 107V118H257.625V107H246.625ZM229.25 107H240.25V23.25H229.25H218.25V107H229.25ZM229.25 23.25V34.25H263.875V23.25V12.25H229.25V23.25ZM263.875 23.25V34.25C266.432 34.25 268.95 34.7066 271.488 35.6652L275.375 25.375L279.262 15.0848C274.3 13.21 269.151 12.25 263.875 12.25V23.25ZM275.375 25.375L271.488 35.6652C273.907 36.5793 276.083 37.9152 278.067 39.7337L285.5 31.625L292.933 23.5163C288.917 19.8348 284.343 17.004 279.262 15.0848L275.375 25.375ZM285.5 31.625L278.304 39.945C280.106 41.503 281.579 43.4625 282.707 45.9873L292.75 41.5L302.793 37.0127C300.421 31.7041 297.061 27.0803 292.696 23.305L285.5 31.625ZM292.75 41.5L282.827 46.246C283.837 48.3579 284.5 51.1044 284.5 54.75H295.5H306.5C306.5 48.3956 305.33 42.3087 302.673 36.754L292.75 41.5ZM295.5 54.75H284.5C284.5 58.9997 283.507 62.232 281.845 64.8444L291.125 70.75L300.405 76.6556C304.576 70.1013 306.5 62.667 306.5 54.75H295.5ZM291.125 70.75L281.816 64.8891C280.004 67.7678 277.619 70.0122 274.495 71.7117L279.75 81.375L285.005 91.0383C291.381 87.5712 296.579 82.7322 300.434 76.6109L291.125 70.75ZM279.75 81.375L274.627 71.6409C271.521 73.2756 268.122 74.125 264.25 74.125V85.125V96.125C271.544 96.125 278.479 94.4744 284.873 91.1091L279.75 81.375ZM264.25 85.125V74.125C260.389 74.125 257.408 73.7634 255.168 73.2034L252.5 83.875L249.832 94.5466C254.259 95.6532 259.111 96.125 264.25 96.125V85.125ZM252.5 83.875L255.168 73.2034C252.49 72.5339 251.017 71.8515 250.33 71.422L244.5 80.75L238.67 90.078C241.983 92.1485 245.844 93.5494 249.832 94.5466L252.5 83.875ZM244.5 80.75H255.5V66.5H244.5H233.5V80.75H244.5ZM244.5 66.5L239.581 76.3387C242.282 77.6893 245.436 78.7877 248.806 79.7237L251.75 69.125L254.694 58.5263C252.064 57.7956 250.385 57.1441 249.419 56.6613L244.5 66.5ZM251.75 69.125L249.15 79.8133C253.126 80.7805 257.21 81.25 261.375 81.25V70.25V59.25C258.874 59.25 256.54 58.9695 254.35 58.4367L251.75 69.125ZM261.375 70.25V81.25C268.454 81.25 275.365 79.2497 280.796 74.1285L273.25 66.125L265.704 58.1215C265.302 58.5003 264.296 59.25 261.375 59.25V70.25ZM273.25 66.125L280.803 74.1221C286.342 68.8906 288.75 62.0261 288.75 54.75H277.75H266.75C266.75 56.9739 266.158 57.6928 265.697 58.1279L273.25 66.125ZM277.75 54.75H288.75C288.75 49.6411 287.552 44.3944 284.256 39.8848L275.375 46.375L266.494 52.8652C266.456 52.8129 266.504 52.8513 266.574 53.0948C266.649 53.3595 266.75 53.8819 266.75 54.75H277.75ZM275.375 46.375L284.528 40.2733C281.828 36.2232 278.145 33.1972 273.777 31.2249L269.25 41.25L264.723 51.2751C265.522 51.6361 265.922 52.0268 266.222 52.4767L275.375 46.375ZM269.25 41.25L273.902 31.282C269.821 29.3778 265.465 28.5 261 28.5V39.5V50.5C262.535 50.5 263.679 50.7889 264.598 51.218L269.25 41.25ZM261 39.5V28.5H246.625V39.5V50.5H261V39.5ZM246.625 39.5H235.625V107H246.625H257.625V39.5H246.625ZM246.625 107V96H229.25V107V118H246.625V107ZM310.25 107H299.25V118H310.25V107ZM310.25 43.875V32.875H299.25V43.875H310.25ZM326.125 43.875H337.125V32.875H326.125V43.875ZM326.125 107V118H337.125V107H326.125ZM326.125 71.75H315.125L335.869 76.8541L326.125 71.75ZM326.125 55.75L316.6 50.2469L315.125 52.8007V55.75H326.125ZM333.75 46.375L326.708 37.9246L326.649 37.9735L326.591 38.0232L333.75 46.375ZM350 43.75H361V36.4966L354.333 33.6394L350 43.75ZM350 61.625L344.341 71.0574L361 81.0531V61.625H350ZM346 60L342.719 70.4993L343.096 70.6171L343.481 70.7076L346 60ZM332.5 63L340.141 70.9134L340.145 70.9089L332.5 63ZM310.25 107H321.25V43.875H310.25H299.25V107H310.25ZM310.25 43.875V54.875H326.125V43.875V32.875H310.25V43.875ZM326.125 43.875H315.125V107H326.125H337.125V43.875H326.125ZM326.125 107V96H310.25V107V118H326.125V107ZM326.125 71.75H337.125V55.75H326.125H315.125V71.75H326.125ZM326.125 55.75L335.65 61.2531C337.273 58.4438 339.048 56.3217 340.909 54.7268L333.75 46.375L326.591 38.0232C322.619 41.4283 319.311 45.5562 316.6 50.2469L326.125 55.75ZM333.75 46.375L340.792 54.8254C341.904 53.8988 342.812 53.625 343.875 53.625V42.625V31.625C337.438 31.625 331.596 33.8512 326.708 37.9246L333.75 46.375ZM343.875 42.625V53.625C345.046 53.625 345.558 53.8139 345.667 53.8606L350 43.75L354.333 33.6394C350.942 32.1861 347.371 31.625 343.875 31.625V42.625ZM350 43.75H339V61.625H350H361V43.75H350ZM350 61.625L355.659 52.1926C353.437 50.8588 351.044 49.8865 348.519 49.2924L346 60L343.481 70.7076C343.789 70.7802 344.063 70.8912 344.341 71.0574L350 61.625ZM346 60L349.281 49.5007C346.755 48.7112 344.175 48.375 341.625 48.375V59.375V70.375C342.242 70.375 342.579 70.4554 342.719 70.4993L346 60ZM341.625 59.375V48.375C335.286 48.375 329.475 50.6253 324.855 55.0911L332.5 63L340.145 70.9089C340.525 70.5414 340.798 70.375 341.625 70.375V59.375ZM332.5 63L324.859 55.0866C321.462 58.3673 318.667 62.2821 316.381 66.6459L326.125 71.75L335.869 76.8541C337.25 74.2179 338.705 72.2994 340.141 70.9134L332.5 63ZM378.625 106.375L374.216 116.453L374.341 116.508L374.468 116.559L378.625 106.375ZM367.875 99.25L360.31 107.235L367.875 99.25ZM360.5 88.75L350.389 93.0831L350.406 93.1211L350.422 93.159L360.5 88.75ZM360.5 62.625L370.578 67.034L370.594 66.9961L370.611 66.9581L360.5 62.625ZM367.875 52L375.44 59.9855L375.495 59.9337L375.549 59.8812L367.875 52ZM378.625 44.875L382.856 55.0288L382.907 55.0075L382.958 54.9856L378.625 44.875ZM404.625 44.875L400.292 54.9856L400.38 55.0232L400.468 55.0593L404.625 44.875ZM415.375 52L407.597 59.7782L407.702 59.8833L407.81 59.9855L415.375 52ZM422.75 62.625L412.639 66.9581L412.693 67.0838L412.75 67.2082L422.75 62.625ZM422.75 88.75L412.715 84.2445L412.693 84.2926L412.672 84.341L422.75 88.75ZM415.375 99.25L407.81 91.2645L407.757 91.3149L407.704 91.366L415.375 99.25ZM404.625 106.375L408.782 116.559L408.87 116.523L408.958 116.486L404.625 106.375ZM400 91.5L405.176 101.206L405.233 101.176L405.289 101.145L400 91.5ZM406.25 85.375L415.708 90.9909L415.746 90.9275L415.783 90.8636L406.25 85.375ZM400 59.75L394.577 69.3202L394.764 69.4262L394.955 69.5248L400 59.75ZM383.25 59.75L388.295 69.5248L388.353 69.4949L388.411 69.4643L383.25 59.75ZM377 65.75L367.542 60.1341L367.476 60.2448L367.413 60.3571L377 65.75ZM377 85.375L367.343 90.6424L367.439 90.8185L367.542 90.9909L377 85.375ZM383.25 91.5L377.961 101.145L378.144 101.245L378.331 101.339L383.25 91.5ZM391.625 108.875V97.875C388.41 97.875 385.494 97.2976 382.782 96.1907L378.625 106.375L374.468 116.559C379.923 118.786 385.673 119.875 391.625 119.875V108.875ZM378.625 106.375L383.034 96.2973C380.198 95.0565 377.683 93.3891 375.44 91.2645L367.875 99.25L360.31 107.235C364.401 111.111 369.052 114.193 374.216 116.453L378.625 106.375ZM367.875 99.25L375.44 91.2645C373.343 89.2776 371.738 86.994 370.578 84.341L360.5 88.75L350.422 93.159C352.762 98.506 356.074 103.222 360.31 107.235L367.875 99.25ZM360.5 88.75L370.611 84.4169C369.477 81.7714 368.875 78.8785 368.875 75.625H357.875H346.875C346.875 81.7048 348.023 87.5619 350.389 93.0831L360.5 88.75ZM357.875 75.625H368.875C368.875 72.3698 369.477 69.5497 370.578 67.034L360.5 62.625L350.422 58.216C348.023 63.7003 346.875 69.5468 346.875 75.625H357.875ZM360.5 62.625L370.611 66.9581C371.781 64.2269 373.383 61.9349 375.44 59.9855L367.875 52L360.31 44.0145C356.034 48.0651 352.719 52.8564 350.389 58.2919L360.5 62.625ZM367.875 52L375.549 59.8812C377.742 57.746 380.162 56.1511 382.856 55.0288L378.625 44.875L374.394 34.7212C369.088 36.9322 364.342 40.0873 360.201 44.1188L367.875 52ZM378.625 44.875L382.958 54.9856C385.628 53.8412 388.483 53.25 391.625 53.25V42.25V31.25C385.6 31.25 379.788 32.4089 374.292 34.7644L378.625 44.875ZM391.625 42.25V53.25C394.767 53.25 397.622 53.8412 400.292 54.9856L404.625 44.875L408.958 34.7644C403.462 32.4089 397.65 31.25 391.625 31.25V42.25ZM404.625 44.875L400.468 55.0593C403.212 56.1794 405.561 57.7419 407.597 59.7782L415.375 52L423.153 44.2218C419.023 40.0914 414.204 36.904 408.782 34.6907L404.625 44.875ZM415.375 52L407.81 59.9855C409.867 61.9349 411.469 64.2269 412.639 66.9581L422.75 62.625L432.861 58.2919C430.531 52.8564 427.216 48.0651 422.94 44.0145L415.375 52ZM422.75 62.625L412.75 67.2082C413.885 69.6839 414.5 72.4425 414.5 75.625H425.5H436.5C436.5 69.4742 435.282 63.5661 432.75 58.0418L422.75 62.625ZM425.5 75.625H414.5C414.5 78.8062 413.885 81.6385 412.715 84.2445L422.75 88.75L432.785 93.2555C435.282 87.6948 436.5 81.7771 436.5 75.625H425.5ZM422.75 88.75L412.672 84.341C411.512 86.994 409.907 89.2776 407.81 91.2645L415.375 99.25L422.94 107.235C427.176 103.222 430.488 98.506 432.828 93.159L422.75 88.75ZM415.375 99.25L407.704 91.366C405.619 93.3947 403.177 95.028 400.292 96.2644L404.625 106.375L408.958 116.486C414.24 114.222 418.964 111.105 423.046 107.134L415.375 99.25ZM404.625 106.375L400.468 96.1907C397.756 97.2976 394.84 97.875 391.625 97.875V108.875V119.875C397.577 119.875 403.327 118.786 408.782 116.559L404.625 106.375ZM391.625 93.5V104.5C396.351 104.5 400.945 103.462 405.176 101.206L400 91.5L394.824 81.7941C394.055 82.2042 393.066 82.5 391.625 82.5V93.5ZM400 91.5L405.289 101.145C409.69 98.7317 413.176 95.2566 415.708 90.9909L406.25 85.375L396.792 79.7591C396.158 80.8268 395.477 81.4349 394.711 81.8551L400 91.5ZM406.25 85.375L415.783 90.8636C418.489 86.1634 419.625 80.9494 419.625 75.625H408.625H397.625C397.625 77.8006 397.178 79.0866 396.717 79.8864L406.25 85.375ZM408.625 75.625H419.625C419.625 70.2448 418.534 64.8929 415.708 60.1341L406.25 65.75L396.792 71.3659C397.133 71.9404 397.625 73.1718 397.625 75.625H408.625ZM406.25 65.75L415.708 60.1341C413.146 55.8185 409.584 52.3177 405.045 49.9752L400 59.75L394.955 69.5248C395.583 69.849 396.187 70.3482 396.792 71.3659L406.25 65.75ZM400 59.75L405.423 50.1798C401.149 47.7577 396.466 46.625 391.625 46.625V57.625V68.625C392.951 68.625 393.851 68.909 394.577 69.3202L400 59.75ZM391.625 57.625V46.625C386.844 46.625 382.287 47.8057 378.089 50.0357L383.25 59.75L388.411 69.4643C389.546 68.8609 390.573 68.625 391.625 68.625V57.625ZM383.25 59.75L378.205 49.9752C373.666 52.3177 370.104 55.8185 367.542 60.1341L377 65.75L386.458 71.3659C387.063 70.3482 387.667 69.849 388.295 69.5248L383.25 59.75ZM377 65.75L367.413 60.3571C364.762 65.0692 363.75 70.3369 363.75 75.625H374.75H385.75C385.75 73.0798 386.238 71.7641 386.587 71.1429L377 65.75ZM374.75 75.625H363.75C363.75 80.8538 364.803 85.9863 367.343 90.6424L377 85.375L386.657 80.1076C386.197 79.2637 385.75 77.8962 385.75 75.625H374.75ZM377 85.375L367.542 90.9909C370.074 95.2566 373.56 98.7317 377.961 101.145L383.25 91.5L388.539 81.8551C387.773 81.4349 387.092 80.8268 386.458 79.7591L377 85.375ZM383.25 91.5L378.331 101.339C382.49 103.418 386.962 104.5 391.625 104.5V93.5V82.5C390.455 82.5 389.344 82.2485 388.169 81.6613L383.25 91.5ZM458.5 12.5L452.841 21.9324L453.018 22.0388L453.199 22.1384L458.5 12.5ZM462.5 16.375L453.068 22.0345L453.132 22.1424L453.2 22.2489L462.5 16.375ZM447.5 31L441.841 40.4324L447.5 31ZM445.25 14.125L437.626 6.19584L445.25 14.125ZM439.375 138.875L429.554 143.83L433.925 152.494L443.067 149.237L439.375 138.875ZM432.375 125L427.837 114.98L417.387 119.712L422.554 129.955L432.375 125ZM442.5 117.75L434.131 110.612L434.069 110.684L434.009 110.757L442.5 117.75ZM446.125 57.375H457.125V46.375H446.125V57.375ZM436 57.375H425V68.375H436V57.375ZM436 43.875V32.875H425V43.875H436ZM462 43.875H473V32.875H462V43.875ZM456.125 127L447.308 120.422L447.283 120.456L447.259 120.489L456.125 127ZM453 11V22C453.041 22 453.055 22.0025 453.046 22.0014C453.037 22.0002 453.014 21.9964 452.981 21.9874C452.947 21.9783 452.915 21.9668 452.886 21.9543C452.872 21.9484 452.861 21.9431 452.853 21.9389C452.844 21.9348 452.84 21.9324 452.841 21.9324L458.5 12.5L464.159 3.06758C460.732 1.01107 456.933 0 453 0V11ZM458.5 12.5L453.199 22.1384C453.201 22.1397 453.189 22.1329 453.167 22.1165C453.144 22.1 453.12 22.0796 453.096 22.0569C453.073 22.0342 453.058 22.0163 453.051 22.0075C453.044 21.9989 453.05 22.0059 453.068 22.0345L462.5 16.375L471.932 10.7155C469.954 7.41875 467.211 4.73714 463.801 2.86163L458.5 12.5ZM462.5 16.375L453.2 22.2489C453.132 22.1425 453.069 22.0044 453.03 21.863C452.992 21.7268 453 21.6746 453 21.75H464H475C475 17.8184 473.987 13.9632 471.8 10.5011L462.5 16.375ZM464 21.75H453C453 21.6522 453.015 21.5306 453.048 21.4156C453.08 21.3045 453.106 21.2767 453.068 21.3405L462.5 27L471.932 32.6595C473.894 29.3903 475 25.6983 475 21.75H464ZM462.5 27L453.068 21.3405C453.016 21.4265 452.983 21.4605 452.972 21.4718C452.96 21.4832 452.926 21.516 452.841 21.5676L458.5 31L464.159 40.4324C467.374 38.5035 470.003 35.8744 471.932 32.6595L462.5 27ZM458.5 31L452.841 21.5676C452.84 21.5676 452.844 21.5652 452.853 21.5611C452.861 21.5569 452.872 21.5516 452.886 21.5457C452.915 21.5332 452.947 21.5217 452.981 21.5126C453.014 21.5036 453.037 21.4998 453.046 21.4986C453.055 21.4975 453.041 21.5 453 21.5V32.5V43.5C456.933 43.5 460.732 42.4889 464.159 40.4324L458.5 31ZM453 32.5V21.5C452.959 21.5 452.945 21.4975 452.954 21.4986C452.963 21.4998 452.986 21.5036 453.019 21.5126C453.053 21.5217 453.085 21.5332 453.114 21.5457C453.128 21.5516 453.139 21.5569 453.147 21.5611C453.156 21.5652 453.16 21.5676 453.159 21.5676L447.5 31L441.841 40.4324C445.268 42.4889 449.067 43.5 453 43.5V32.5ZM447.5 31L453.159 21.5676C453.074 21.516 453.04 21.4832 453.028 21.4718C453.017 21.4605 452.984 21.4265 452.932 21.3405L443.5 27L434.068 32.6595C435.997 35.8744 438.626 38.5035 441.841 40.4324L447.5 31ZM443.5 27L452.932 21.3405C452.894 21.2767 452.92 21.3045 452.952 21.4156C452.985 21.5306 453 21.6522 453 21.75H442H431C431 25.6983 432.106 29.3903 434.068 32.6595L443.5 27ZM442 21.75H453C453 21.6645 453.007 21.652 452.999 21.6964C452.99 21.743 452.969 21.8184 452.932 21.9068C452.894 21.9953 452.854 22.061 452.828 22.0978C452.804 22.1328 452.81 22.1163 452.874 22.0542L445.25 14.125L437.626 6.19584C433.307 10.3485 431 15.7513 431 21.75H442ZM445.25 14.125L452.874 22.0542C452.916 22.0137 452.948 21.9868 452.968 21.9706C452.988 21.9545 452.999 21.9477 452.999 21.9474C452.999 21.9472 452.992 21.9519 452.978 21.9592C452.964 21.9667 452.946 21.975 452.926 21.9831C452.882 22.0009 452.851 22.0077 452.846 22.0087C452.842 22.0094 452.889 22 453 22V11V0C447.151 0 441.837 2.14644 437.626 6.19584L445.25 14.125ZM439.375 138.875L449.196 133.92L442.196 120.045L432.375 125L422.554 129.955L429.554 143.83L439.375 138.875ZM432.375 125L436.913 135.02C442.39 132.54 447.303 129.222 450.991 124.743L442.5 117.75L434.009 110.757C433.031 111.945 431.193 113.46 427.837 114.98L432.375 125ZM442.5 117.75L450.869 124.888C455.288 119.707 457.125 113.398 457.125 106.875H446.125H435.125C435.125 109.186 434.545 110.126 434.131 110.612L442.5 117.75ZM446.125 106.875H457.125V57.375H446.125H435.125V106.875H446.125ZM446.125 57.375V46.375H436V57.375V68.375H446.125V57.375ZM436 57.375H447V43.875H436H425V57.375H436ZM436 43.875V54.875H462V43.875V32.875H436V43.875ZM462 43.875H451V106.25H462H473V43.875H462ZM462 106.25H451C451 113.198 449.423 117.587 447.308 120.422L456.125 127L464.942 133.578C470.66 125.913 473 116.469 473 106.25H462ZM456.125 127L447.259 120.489C444.845 123.775 441.209 126.544 435.683 128.513L439.375 138.875L443.067 149.237C452.041 146.039 459.571 140.891 464.991 133.511L456.125 127ZM498.875 106.5L494.718 116.684L494.808 116.721L494.898 116.756L498.875 106.5ZM488 99.625L480.441 107.616L480.494 107.666L480.548 107.716L488 99.625ZM482.25 59.25L491.925 64.484L491.943 64.4512L491.96 64.4183L482.25 59.25ZM526 46.25L520.314 55.6667L520.353 55.6901L520.392 55.7132L526 46.25ZM536.25 57.375L526.377 62.2249L526.428 62.3297L526.482 62.4334L536.25 57.375ZM539.875 80.375V91.375H550.875V80.375H539.875ZM492.75 80.375H481.75V91.375H492.75V80.375ZM492.75 69.5V58.5H481.75V69.5H492.75ZM524.625 69.5V80.5H536.236L535.609 68.9063L524.625 69.5ZM522.125 62L513.325 68.6L513.393 68.6904L513.462 68.7794L522.125 62ZM516.625 57.625L512.015 67.6125L512.176 67.6867L512.339 67.7556L516.625 57.625ZM501.25 58.625L495.005 49.5697L494.93 49.6212L494.856 49.6739L501.25 58.625ZM502.75 92.125L497.384 101.727L497.443 101.76L497.502 101.792L502.75 92.125ZM525.125 91.75L520.294 81.8678L520.25 81.8893L520.206 81.9113L525.125 91.75ZM534 86.125H545V61.7079L526.712 77.886L534 86.125ZM534 100.875L541.505 108.917L545 105.655V100.875H534ZM521 107.625L517.978 97.0482L517.937 97.06L517.896 97.072L521 107.625ZM512 108.875V97.875C508.604 97.875 505.586 97.3041 502.852 96.244L498.875 106.5L494.898 116.756C500.331 118.863 506.063 119.875 512 119.875V108.875ZM498.875 106.5L503.032 96.3157C500.133 95.1324 497.63 93.5402 495.452 91.534L488 99.625L480.548 107.716C484.703 111.543 489.451 114.534 494.718 116.684L498.875 106.5ZM488 99.625L495.559 91.6339C493.578 89.7597 492.004 87.5299 490.828 84.841L480.75 89.25L470.672 93.659C472.996 98.9701 476.255 103.657 480.441 107.616L488 99.625ZM480.75 89.25L490.828 84.841C489.738 82.3497 489.125 79.4922 489.125 76.125H478.125H467.125C467.125 82.2578 468.262 88.1503 470.672 93.659L480.75 89.25ZM478.125 76.125H489.125C489.125 71.6599 490.103 67.8524 491.925 64.484L482.25 59.25L472.575 54.016C468.897 60.8142 467.125 68.2568 467.125 76.125H478.125ZM482.25 59.25L491.96 64.4183C493.84 60.8875 496.339 58.1911 499.541 56.1487L493.625 46.875L487.709 37.6013C481.244 41.7256 476.16 47.2792 472.54 54.0817L482.25 59.25ZM493.625 46.875L499.541 56.1487C502.473 54.2785 505.889 53.25 510.125 53.25V42.25V31.25C502.028 31.25 494.444 33.3048 487.709 37.6013L493.625 46.875ZM510.125 42.25V53.25C514.681 53.25 517.922 54.2221 520.314 55.6667L526 46.25L531.686 36.8333C525.245 32.9446 517.902 31.25 510.125 31.25V42.25ZM526 46.25L520.392 55.7132C523.029 57.276 524.975 59.3707 526.377 62.2249L536.25 57.375L546.123 52.5251C542.859 45.8793 537.971 40.5574 531.608 36.7868L526 46.25ZM536.25 57.375L526.482 62.4334C527.96 65.2867 528.875 68.9137 528.875 73.625H539.875H550.875C550.875 66.0029 549.374 58.7966 546.018 52.3166L536.25 57.375ZM539.875 73.625H528.875V80.375H539.875H550.875V73.625H539.875ZM539.875 80.375V69.375H492.75V80.375V91.375H539.875V80.375ZM492.75 80.375H503.75V69.5H492.75H481.75V80.375H492.75ZM492.75 69.5V80.5H524.625V69.5V58.5H492.75V69.5ZM524.625 69.5L535.609 68.9063C535.353 64.1779 534.009 59.3371 530.788 55.2206L522.125 62L513.462 68.7794C513.375 68.668 513.388 68.6357 513.439 68.791C513.497 68.9646 513.602 69.3702 513.641 70.0937L524.625 69.5ZM522.125 62L530.925 55.4C528.335 51.9461 524.981 49.2162 520.911 47.4944L516.625 57.625L512.339 67.7556C512.603 67.8672 512.915 68.0539 513.325 68.6L522.125 62ZM516.625 57.625L521.235 47.6374C517.604 45.9617 513.737 45.125 509.75 45.125V56.125V67.125C510.596 67.125 511.313 67.2883 512.015 67.6125L516.625 57.625ZM509.75 56.125V45.125C504.519 45.125 499.453 46.5021 495.005 49.5697L501.25 58.625L507.495 67.6803C507.88 67.4146 508.481 67.125 509.75 67.125V56.125ZM501.25 58.625L494.856 49.6739C490.705 52.6391 487.711 56.6277 485.698 61.1575L495.75 65.625L505.802 70.0925C506.455 68.6223 507.128 67.9443 507.644 67.5761L501.25 58.625ZM495.75 65.625L485.698 61.1575C483.619 65.836 482.75 70.9145 482.75 76.125H493.75H504.75C504.75 73.3355 505.215 71.414 505.802 70.0925L495.75 65.625ZM493.75 76.125H482.75C482.75 81.381 483.928 86.4872 486.592 91.1136L496.125 85.625L505.658 80.1364C505.155 79.2628 504.75 78.0356 504.75 76.125H493.75ZM496.125 85.625L486.592 91.1136C489.191 95.627 492.857 99.1977 497.384 101.727L502.75 92.125L508.116 82.5226C506.976 81.8856 506.226 81.123 505.658 80.1364L496.125 85.625ZM502.75 92.125L497.502 101.792C502.194 104.339 507.321 105.5 512.625 105.5V94.5V83.5C510.595 83.5 509.14 83.0774 507.998 82.4576L502.75 92.125ZM512.625 94.5V105.5C518.762 105.5 524.651 104.285 530.044 101.589L525.125 91.75L520.206 81.9113C518.266 82.8813 515.822 83.5 512.625 83.5V94.5ZM525.125 91.75L529.956 101.632C534.239 99.5384 538.133 97.1556 541.288 94.364L534 86.125L526.712 77.886C525.534 78.9277 523.511 80.2949 520.294 81.8678L525.125 91.75ZM534 86.125H523V100.875H534H545V86.125H534ZM534 100.875L526.495 92.8334C526.139 93.1653 525.227 93.8738 523.408 94.8843L528.75 104.5L534.092 114.116C536.773 112.626 539.361 110.918 541.505 108.917L534 100.875ZM528.75 104.5L523.408 94.8843C522.009 95.6617 520.226 96.4059 517.978 97.0482L521 107.625L524.022 118.202C527.607 117.177 530.991 115.838 534.092 114.116L528.75 104.5ZM521 107.625L517.896 97.072C516.141 97.5882 514.192 97.875 512 97.875V108.875V119.875C516.142 119.875 520.192 119.328 524.104 118.178L521 107.625ZM569.875 106.25L565.466 116.328L565.504 116.344L565.542 116.361L569.875 106.25ZM552.375 88.375L542.147 92.4235L542.183 92.515L542.221 92.6058L552.375 88.375ZM552.375 63.125L542.221 58.8942L542.183 58.985L542.147 59.0765L552.375 63.125ZM559.375 52.5L567.259 60.1709L567.31 60.1184L567.36 60.0652L559.375 52.5ZM569.875 45L565.37 34.965L565.331 34.9825L565.292 35.0003L569.875 45ZM594.625 44.5L589.594 54.2822L589.65 54.3107L589.706 54.3387L594.625 44.5ZM601.75 48.875H612.75V43.6272L608.671 40.3253L601.75 48.875ZM601.75 63.5L595.26 72.3813L612.75 85.1626V63.5H601.75ZM594.375 59.5L590.235 69.6911L590.289 69.7131L590.343 69.7345L594.375 59.5ZM575.625 60.25L570.136 50.7172L570.073 50.7539L570.009 50.7916L575.625 60.25ZM575.375 91.25L569.759 100.708L569.932 100.811L570.108 100.907L575.375 91.25ZM594.375 91.875L590.343 81.6405L590.289 81.6619L590.235 81.6839L594.375 91.875ZM601.75 88H612.75V67.0058L595.489 78.9559L601.75 88ZM601.75 102.5L608.909 110.852L612.75 107.559V102.5H601.75ZM594.625 106.875L599.198 116.879L599.26 116.851L599.322 116.822L594.625 106.875ZM583.125 108.875V97.875C579.76 97.875 576.829 97.2628 574.208 96.1394L569.875 106.25L565.542 116.361C571.087 118.737 576.99 119.875 583.125 119.875V108.875ZM569.875 106.25L574.284 96.1723C571.567 94.9836 569.252 93.3776 567.259 91.3291L559.375 99L551.491 106.671C555.498 110.789 560.183 114.016 565.466 116.328L569.875 106.25ZM559.375 99L567.259 91.3291C565.233 89.2466 563.666 86.8743 562.529 84.1442L552.375 88.375L542.221 92.6058C544.417 97.8757 547.517 102.587 551.491 106.671L559.375 99ZM552.375 88.375L562.603 84.3265C561.543 81.6499 561 78.8183 561 75.75H550H539C539 81.5151 540.04 87.1001 542.147 92.4235L552.375 88.375ZM550 75.75H561C561 72.6817 561.543 69.8501 562.603 67.1735L552.375 63.125L542.147 59.0765C540.04 64.3999 539 69.9849 539 75.75H550ZM552.375 63.125L562.529 67.3558C563.666 64.6257 565.233 62.2534 567.259 60.1709L559.375 52.5L551.491 44.8291C547.517 48.9133 544.417 53.6243 542.221 58.8942L552.375 63.125ZM559.375 52.5L567.36 60.0652C569.384 57.9293 571.726 56.2519 574.458 54.9997L569.875 45L565.292 35.0003C560.024 37.4148 555.366 40.7374 551.39 44.9348L559.375 52.5ZM569.875 45L574.38 55.035C576.961 53.8763 579.831 53.25 583.125 53.25V42.25V31.25C576.919 31.25 570.955 32.4571 565.37 34.965L569.875 45ZM583.125 42.25V53.25C586.854 53.25 588.774 53.8601 589.594 54.2822L594.625 44.5L599.656 34.7178C594.643 32.1399 588.896 31.25 583.125 31.25V42.25ZM594.625 44.5L589.706 54.3387C592.304 55.6379 593.919 56.688 594.829 57.4247L601.75 48.875L608.671 40.3253C606.081 38.2286 602.946 36.3621 599.544 34.6613L594.625 44.5ZM601.75 48.875H590.75V63.5H601.75H612.75V48.875H601.75ZM601.75 63.5L608.24 54.6187C605.243 52.4283 601.943 50.6586 598.407 49.2655L594.375 59.5L590.343 69.7345C592.307 70.508 593.924 71.405 595.26 72.3813L601.75 63.5ZM594.375 59.5L598.515 49.3089C594.152 47.5363 589.356 46.875 584.5 46.875V57.875V68.875C587.477 68.875 589.265 69.297 590.235 69.6911L594.375 59.5ZM584.5 57.875V46.875C579.403 46.875 574.552 48.1747 570.136 50.7172L575.625 60.25L581.114 69.7829C582.198 69.1586 583.264 68.875 584.5 68.875V57.875ZM575.625 60.25L570.009 50.7916C565.76 53.3143 562.314 56.7604 559.792 61.0091L569.25 66.625L578.708 72.2409C579.352 71.1563 580.156 70.3524 581.241 69.7084L575.625 60.25ZM569.25 66.625L559.792 61.0091C557.099 65.5447 555.875 70.5637 555.875 75.75H566.875H577.875C577.875 74.1029 578.235 73.0386 578.708 72.2409L569.25 66.625ZM566.875 75.75H555.875C555.875 80.8308 557.007 85.7691 559.538 90.2679L569.125 84.875L578.712 79.4821C578.243 78.6475 577.875 77.5025 577.875 75.75H566.875ZM569.125 84.875L559.538 90.2679C561.996 94.6381 565.459 98.1553 569.759 100.708L575.375 91.25L580.991 81.7916C579.958 81.1781 579.254 80.4453 578.712 79.4821L569.125 84.875ZM575.375 91.25L570.108 100.907C574.577 103.345 579.448 104.5 584.5 104.5V93.5V82.5C582.885 82.5 581.673 82.1553 580.642 81.5931L575.375 91.25ZM584.5 93.5V104.5C589.356 104.5 594.152 103.839 598.515 102.066L594.375 91.875L590.235 81.6839C589.265 82.078 587.477 82.5 584.5 82.5V93.5ZM594.375 91.875L598.407 102.109C601.85 100.753 605.072 99.0794 608.011 97.0441L601.75 88L595.489 78.9559C594.095 79.9206 592.4 80.8301 590.343 81.6405L594.375 91.875ZM601.75 88H590.75V102.5H601.75H612.75V88H601.75ZM601.75 102.5L594.591 94.1482C593.835 94.7967 592.393 95.7641 589.928 96.9283L594.625 106.875L599.322 116.822C602.857 115.153 606.165 113.203 608.909 110.852L601.75 102.5ZM594.625 106.875L590.052 96.8708C589.09 97.3102 586.991 97.875 583.125 97.875V108.875V119.875C588.759 119.875 594.326 119.106 599.198 116.879L594.625 106.875ZM631.75 106.375L626.408 115.991L626.463 116.022L626.519 116.052L631.75 106.375ZM624.625 99.375L615.058 104.805L615.091 104.861L615.123 104.918L624.625 99.375ZM622 57.125H633V46.125H622V57.125ZM611.5 57.125H600.5V68.125H611.5V57.125ZM611.5 49L607.894 38.6077L600.5 41.1731V49H611.5ZM621.5 41.125L612.47 34.8433L612.424 34.9101L612.378 34.9776L621.5 41.125ZM628.5 26.75V15.75H620.68L618.111 23.1363L628.5 26.75ZM637.875 26.75H648.875V15.75H637.875V26.75ZM637.875 43.875H626.875V54.875H637.875V43.875ZM656.875 43.875H667.875V32.875H656.875V43.875ZM656.875 57.125V68.125H667.875V57.125H656.875ZM637.875 57.125V46.125H626.875V57.125H637.875ZM640 91.125L631.619 98.2491L631.811 98.475L632.015 98.6902L640 91.125ZM657.875 90H668.875V70.7674L652.298 80.5187L657.875 90ZM657.875 103.5L665.86 111.065L668.875 107.883V103.5H657.875ZM651.5 107.375L647.741 97.0373L647.689 97.0561L647.638 97.0754L651.5 107.375ZM642 108.875V97.875C639.945 97.875 638.346 97.436 636.981 96.6982L631.75 106.375L626.519 116.052C631.321 118.647 636.555 119.875 642 119.875V108.875ZM631.75 106.375L637.092 96.7593C635.841 96.0642 634.894 95.1474 634.127 93.8324L624.625 99.375L615.123 104.918C617.856 109.603 621.659 113.352 626.408 115.991L631.75 106.375ZM624.625 99.375L634.192 93.9453C633.534 92.7866 633 91.0988 633 88.5H622H611C611 94.2345 612.216 99.7967 615.058 104.805L624.625 99.375ZM622 88.5H633V57.125H622H611V88.5H622ZM622 57.125V46.125H611.5V57.125V68.125H622V57.125ZM611.5 57.125H622.5V49H611.5H600.5V57.125H611.5ZM611.5 49L615.105 59.3923C621.6 57.1393 626.806 52.9345 630.622 47.2724L621.5 41.125L612.378 34.9776C611.027 36.9822 609.567 38.0274 607.894 38.6077L611.5 49ZM621.5 41.125L630.53 47.4067C633.912 42.5446 636.654 36.7909 638.889 30.3637L628.5 26.75L618.111 23.1363C616.346 28.2091 614.421 32.0387 612.47 34.8433L621.5 41.125ZM628.5 26.75V37.75H637.875V26.75V15.75H628.5V26.75ZM637.875 26.75H626.875V43.875H637.875H648.875V26.75H637.875ZM637.875 43.875V54.875H656.875V43.875V32.875H637.875V43.875ZM656.875 43.875H645.875V57.125H656.875H667.875V43.875H656.875ZM656.875 57.125V46.125H637.875V57.125V68.125H656.875V57.125ZM637.875 57.125H626.875V84.375H637.875H648.875V57.125H637.875ZM637.875 84.375H626.875C626.875 89.0329 628.064 94.0674 631.619 98.2491L640 91.125L648.381 84.0009C648.529 84.1748 648.648 84.353 648.739 84.5199C648.829 84.685 648.876 84.8136 648.899 84.8844C648.941 85.0178 648.875 84.8891 648.875 84.375H637.875ZM640 91.125L632.015 98.6902C636.165 103.072 641.596 104.5 646.5 104.5V93.5V82.5C646.087 82.5 646.158 82.4403 646.525 82.5743C646.946 82.728 647.498 83.0449 647.985 83.5598L640 91.125ZM646.5 93.5V104.5C650.068 104.5 653.713 103.968 657.165 102.556L653 92.375L648.835 82.194C648.621 82.2817 647.932 82.5 646.5 82.5V93.5ZM653 92.375L657.165 102.556C659.39 101.646 661.501 100.629 663.452 99.4813L657.875 90L652.298 80.5187C651.415 81.0378 650.277 81.6042 648.835 82.194L653 92.375ZM657.875 90H646.875V103.5H657.875H668.875V90H657.875ZM657.875 103.5L649.89 95.9348C649.895 95.9293 649.409 96.4307 647.741 97.0373L651.5 107.375L655.259 117.713C659.091 116.319 662.855 114.237 665.86 111.065L657.875 103.5ZM651.5 107.375L647.638 97.0754C646.504 97.5005 644.709 97.875 642 97.875V108.875V119.875C646.625 119.875 651.163 119.25 655.362 117.675L651.5 107.375Z" fill="#A4C6F2" mask="url(#path-1-outside-1_174_7)"/>
</svg>
